G75*
%MOIN*%
%OFA0B0*%
%FSLAX24Y24*%
%IPPOS*%
%LPD*%
%AMOC8*
5,1,8,0,0,1.08239X$1,22.5*
%
%ADD10C,0.0049*%
%ADD11R,0.1614X0.1614*%
%ADD12R,0.0276X0.0354*%
%ADD13R,0.0315X0.0315*%
%ADD14R,0.0354X0.0276*%
%ADD15R,0.0118X0.0472*%
%ADD16R,0.0433X0.0394*%
%ADD17C,0.0020*%
%ADD18R,0.0866X0.0236*%
D10*
X005529Y008818D02*
X005529Y009164D01*
X005529Y008818D02*
X005479Y008818D01*
X005479Y009164D01*
X005529Y009164D01*
X005529Y008866D02*
X005479Y008866D01*
X005479Y008914D02*
X005529Y008914D01*
X005529Y008962D02*
X005479Y008962D01*
X005479Y009010D02*
X005529Y009010D01*
X005529Y009058D02*
X005479Y009058D01*
X005479Y009106D02*
X005529Y009106D01*
X005529Y009154D02*
X005479Y009154D01*
X005725Y009164D02*
X005725Y008818D01*
X005675Y008818D01*
X005675Y009164D01*
X005725Y009164D01*
X005725Y008866D02*
X005675Y008866D01*
X005675Y008914D02*
X005725Y008914D01*
X005725Y008962D02*
X005675Y008962D01*
X005675Y009010D02*
X005725Y009010D01*
X005725Y009058D02*
X005675Y009058D01*
X005675Y009106D02*
X005725Y009106D01*
X005725Y009154D02*
X005675Y009154D01*
X005922Y009164D02*
X005922Y008818D01*
X005872Y008818D01*
X005872Y009164D01*
X005922Y009164D01*
X005922Y008866D02*
X005872Y008866D01*
X005872Y008914D02*
X005922Y008914D01*
X005922Y008962D02*
X005872Y008962D01*
X005872Y009010D02*
X005922Y009010D01*
X005922Y009058D02*
X005872Y009058D01*
X005872Y009106D02*
X005922Y009106D01*
X005922Y009154D02*
X005872Y009154D01*
X006119Y009164D02*
X006119Y008818D01*
X006069Y008818D01*
X006069Y009164D01*
X006119Y009164D01*
X006119Y008866D02*
X006069Y008866D01*
X006069Y008914D02*
X006119Y008914D01*
X006119Y008962D02*
X006069Y008962D01*
X006069Y009010D02*
X006119Y009010D01*
X006119Y009058D02*
X006069Y009058D01*
X006069Y009106D02*
X006119Y009106D01*
X006119Y009154D02*
X006069Y009154D01*
X006316Y009164D02*
X006316Y008818D01*
X006266Y008818D01*
X006266Y009164D01*
X006316Y009164D01*
X006316Y008866D02*
X006266Y008866D01*
X006266Y008914D02*
X006316Y008914D01*
X006316Y008962D02*
X006266Y008962D01*
X006266Y009010D02*
X006316Y009010D01*
X006316Y009058D02*
X006266Y009058D01*
X006266Y009106D02*
X006316Y009106D01*
X006316Y009154D02*
X006266Y009154D01*
X006513Y009164D02*
X006513Y008818D01*
X006463Y008818D01*
X006463Y009164D01*
X006513Y009164D01*
X006513Y008866D02*
X006463Y008866D01*
X006463Y008914D02*
X006513Y008914D01*
X006513Y008962D02*
X006463Y008962D01*
X006463Y009010D02*
X006513Y009010D01*
X006513Y009058D02*
X006463Y009058D01*
X006463Y009106D02*
X006513Y009106D01*
X006513Y009154D02*
X006463Y009154D01*
X006710Y009164D02*
X006710Y008818D01*
X006660Y008818D01*
X006660Y009164D01*
X006710Y009164D01*
X006710Y008866D02*
X006660Y008866D01*
X006660Y008914D02*
X006710Y008914D01*
X006710Y008962D02*
X006660Y008962D01*
X006660Y009010D02*
X006710Y009010D01*
X006710Y009058D02*
X006660Y009058D01*
X006660Y009106D02*
X006710Y009106D01*
X006710Y009154D02*
X006660Y009154D01*
X006907Y009164D02*
X006907Y008818D01*
X006857Y008818D01*
X006857Y009164D01*
X006907Y009164D01*
X006907Y008866D02*
X006857Y008866D01*
X006857Y008914D02*
X006907Y008914D01*
X006907Y008962D02*
X006857Y008962D01*
X006857Y009010D02*
X006907Y009010D01*
X006907Y009058D02*
X006857Y009058D01*
X006857Y009106D02*
X006907Y009106D01*
X006907Y009154D02*
X006857Y009154D01*
X007103Y009164D02*
X007103Y008818D01*
X007053Y008818D01*
X007053Y009164D01*
X007103Y009164D01*
X007103Y008866D02*
X007053Y008866D01*
X007053Y008914D02*
X007103Y008914D01*
X007103Y008962D02*
X007053Y008962D01*
X007053Y009010D02*
X007103Y009010D01*
X007103Y009058D02*
X007053Y009058D01*
X007053Y009106D02*
X007103Y009106D01*
X007103Y009154D02*
X007053Y009154D01*
X007300Y009164D02*
X007300Y008818D01*
X007250Y008818D01*
X007250Y009164D01*
X007300Y009164D01*
X007300Y008866D02*
X007250Y008866D01*
X007250Y008914D02*
X007300Y008914D01*
X007300Y008962D02*
X007250Y008962D01*
X007250Y009010D02*
X007300Y009010D01*
X007300Y009058D02*
X007250Y009058D01*
X007250Y009106D02*
X007300Y009106D01*
X007300Y009154D02*
X007250Y009154D01*
X007437Y009351D02*
X007783Y009351D01*
X007783Y009301D01*
X007437Y009301D01*
X007437Y009351D01*
X007437Y009349D02*
X007783Y009349D01*
X007783Y009547D02*
X007437Y009547D01*
X007783Y009547D02*
X007783Y009497D01*
X007437Y009497D01*
X007437Y009547D01*
X007437Y009545D02*
X007783Y009545D01*
X007783Y009744D02*
X007437Y009744D01*
X007783Y009744D02*
X007783Y009694D01*
X007437Y009694D01*
X007437Y009744D01*
X007437Y009742D02*
X007783Y009742D01*
X007783Y009941D02*
X007437Y009941D01*
X007783Y009941D02*
X007783Y009891D01*
X007437Y009891D01*
X007437Y009941D01*
X007437Y009939D02*
X007783Y009939D01*
X007783Y010138D02*
X007437Y010138D01*
X007783Y010138D02*
X007783Y010088D01*
X007437Y010088D01*
X007437Y010138D01*
X007437Y010136D02*
X007783Y010136D01*
X007783Y010335D02*
X007437Y010335D01*
X007783Y010335D02*
X007783Y010285D01*
X007437Y010285D01*
X007437Y010335D01*
X007437Y010333D02*
X007783Y010333D01*
X007783Y010532D02*
X007437Y010532D01*
X007783Y010532D02*
X007783Y010482D01*
X007437Y010482D01*
X007437Y010532D01*
X007437Y010530D02*
X007783Y010530D01*
X007783Y010729D02*
X007437Y010729D01*
X007783Y010729D02*
X007783Y010679D01*
X007437Y010679D01*
X007437Y010729D01*
X007437Y010727D02*
X007783Y010727D01*
X007783Y010925D02*
X007437Y010925D01*
X007783Y010925D02*
X007783Y010875D01*
X007437Y010875D01*
X007437Y010925D01*
X007437Y010923D02*
X007783Y010923D01*
X007783Y011122D02*
X007437Y011122D01*
X007783Y011122D02*
X007783Y011072D01*
X007437Y011072D01*
X007437Y011122D01*
X007437Y011120D02*
X007783Y011120D01*
X007250Y011259D02*
X007250Y011605D01*
X007300Y011605D01*
X007300Y011259D01*
X007250Y011259D01*
X007250Y011307D02*
X007300Y011307D01*
X007300Y011355D02*
X007250Y011355D01*
X007250Y011403D02*
X007300Y011403D01*
X007300Y011451D02*
X007250Y011451D01*
X007250Y011499D02*
X007300Y011499D01*
X007300Y011547D02*
X007250Y011547D01*
X007250Y011595D02*
X007300Y011595D01*
X007053Y011605D02*
X007053Y011259D01*
X007053Y011605D02*
X007103Y011605D01*
X007103Y011259D01*
X007053Y011259D01*
X007053Y011307D02*
X007103Y011307D01*
X007103Y011355D02*
X007053Y011355D01*
X007053Y011403D02*
X007103Y011403D01*
X007103Y011451D02*
X007053Y011451D01*
X007053Y011499D02*
X007103Y011499D01*
X007103Y011547D02*
X007053Y011547D01*
X007053Y011595D02*
X007103Y011595D01*
X006857Y011605D02*
X006857Y011259D01*
X006857Y011605D02*
X006907Y011605D01*
X006907Y011259D01*
X006857Y011259D01*
X006857Y011307D02*
X006907Y011307D01*
X006907Y011355D02*
X006857Y011355D01*
X006857Y011403D02*
X006907Y011403D01*
X006907Y011451D02*
X006857Y011451D01*
X006857Y011499D02*
X006907Y011499D01*
X006907Y011547D02*
X006857Y011547D01*
X006857Y011595D02*
X006907Y011595D01*
X006660Y011605D02*
X006660Y011259D01*
X006660Y011605D02*
X006710Y011605D01*
X006710Y011259D01*
X006660Y011259D01*
X006660Y011307D02*
X006710Y011307D01*
X006710Y011355D02*
X006660Y011355D01*
X006660Y011403D02*
X006710Y011403D01*
X006710Y011451D02*
X006660Y011451D01*
X006660Y011499D02*
X006710Y011499D01*
X006710Y011547D02*
X006660Y011547D01*
X006660Y011595D02*
X006710Y011595D01*
X006463Y011605D02*
X006463Y011259D01*
X006463Y011605D02*
X006513Y011605D01*
X006513Y011259D01*
X006463Y011259D01*
X006463Y011307D02*
X006513Y011307D01*
X006513Y011355D02*
X006463Y011355D01*
X006463Y011403D02*
X006513Y011403D01*
X006513Y011451D02*
X006463Y011451D01*
X006463Y011499D02*
X006513Y011499D01*
X006513Y011547D02*
X006463Y011547D01*
X006463Y011595D02*
X006513Y011595D01*
X006266Y011605D02*
X006266Y011259D01*
X006266Y011605D02*
X006316Y011605D01*
X006316Y011259D01*
X006266Y011259D01*
X006266Y011307D02*
X006316Y011307D01*
X006316Y011355D02*
X006266Y011355D01*
X006266Y011403D02*
X006316Y011403D01*
X006316Y011451D02*
X006266Y011451D01*
X006266Y011499D02*
X006316Y011499D01*
X006316Y011547D02*
X006266Y011547D01*
X006266Y011595D02*
X006316Y011595D01*
X006069Y011605D02*
X006069Y011259D01*
X006069Y011605D02*
X006119Y011605D01*
X006119Y011259D01*
X006069Y011259D01*
X006069Y011307D02*
X006119Y011307D01*
X006119Y011355D02*
X006069Y011355D01*
X006069Y011403D02*
X006119Y011403D01*
X006119Y011451D02*
X006069Y011451D01*
X006069Y011499D02*
X006119Y011499D01*
X006119Y011547D02*
X006069Y011547D01*
X006069Y011595D02*
X006119Y011595D01*
X005872Y011605D02*
X005872Y011259D01*
X005872Y011605D02*
X005922Y011605D01*
X005922Y011259D01*
X005872Y011259D01*
X005872Y011307D02*
X005922Y011307D01*
X005922Y011355D02*
X005872Y011355D01*
X005872Y011403D02*
X005922Y011403D01*
X005922Y011451D02*
X005872Y011451D01*
X005872Y011499D02*
X005922Y011499D01*
X005922Y011547D02*
X005872Y011547D01*
X005872Y011595D02*
X005922Y011595D01*
X005675Y011605D02*
X005675Y011259D01*
X005675Y011605D02*
X005725Y011605D01*
X005725Y011259D01*
X005675Y011259D01*
X005675Y011307D02*
X005725Y011307D01*
X005725Y011355D02*
X005675Y011355D01*
X005675Y011403D02*
X005725Y011403D01*
X005725Y011451D02*
X005675Y011451D01*
X005675Y011499D02*
X005725Y011499D01*
X005725Y011547D02*
X005675Y011547D01*
X005675Y011595D02*
X005725Y011595D01*
X005479Y011605D02*
X005479Y011259D01*
X005479Y011605D02*
X005529Y011605D01*
X005529Y011259D01*
X005479Y011259D01*
X005479Y011307D02*
X005529Y011307D01*
X005529Y011355D02*
X005479Y011355D01*
X005479Y011403D02*
X005529Y011403D01*
X005529Y011451D02*
X005479Y011451D01*
X005479Y011499D02*
X005529Y011499D01*
X005529Y011547D02*
X005479Y011547D01*
X005479Y011595D02*
X005529Y011595D01*
X005342Y011072D02*
X004996Y011072D01*
X004996Y011122D01*
X005342Y011122D01*
X005342Y011072D01*
X005342Y011120D02*
X004996Y011120D01*
X004996Y010875D02*
X005342Y010875D01*
X004996Y010875D02*
X004996Y010925D01*
X005342Y010925D01*
X005342Y010875D01*
X005342Y010923D02*
X004996Y010923D01*
X004996Y010679D02*
X005342Y010679D01*
X004996Y010679D02*
X004996Y010729D01*
X005342Y010729D01*
X005342Y010679D01*
X005342Y010727D02*
X004996Y010727D01*
X004996Y010482D02*
X005342Y010482D01*
X004996Y010482D02*
X004996Y010532D01*
X005342Y010532D01*
X005342Y010482D01*
X005342Y010530D02*
X004996Y010530D01*
X004996Y010285D02*
X005342Y010285D01*
X004996Y010285D02*
X004996Y010335D01*
X005342Y010335D01*
X005342Y010285D01*
X005342Y010333D02*
X004996Y010333D01*
X004996Y010088D02*
X005342Y010088D01*
X004996Y010088D02*
X004996Y010138D01*
X005342Y010138D01*
X005342Y010088D01*
X005342Y010136D02*
X004996Y010136D01*
X004996Y009891D02*
X005342Y009891D01*
X004996Y009891D02*
X004996Y009941D01*
X005342Y009941D01*
X005342Y009891D01*
X005342Y009939D02*
X004996Y009939D01*
X004996Y009694D02*
X005342Y009694D01*
X004996Y009694D02*
X004996Y009744D01*
X005342Y009744D01*
X005342Y009694D01*
X005342Y009742D02*
X004996Y009742D01*
X004996Y009497D02*
X005342Y009497D01*
X004996Y009497D02*
X004996Y009547D01*
X005342Y009547D01*
X005342Y009497D01*
X005342Y009545D02*
X004996Y009545D01*
X004996Y009301D02*
X005342Y009301D01*
X004996Y009301D02*
X004996Y009351D01*
X005342Y009351D01*
X005342Y009301D01*
X005342Y009349D02*
X004996Y009349D01*
D11*
X006389Y010211D03*
D12*
X004354Y002011D03*
X004866Y002011D03*
X004866Y002995D03*
X004354Y002995D03*
X005693Y004058D03*
X005693Y004530D03*
X006204Y004530D03*
X006204Y004058D03*
X006323Y003585D03*
X005811Y003585D03*
X007031Y004530D03*
X007543Y004530D03*
X007846Y007200D03*
X007846Y007707D03*
X008358Y007707D03*
X008358Y007200D03*
X004866Y005081D03*
X004354Y005081D03*
X004315Y011853D03*
X004315Y012326D03*
X004826Y012326D03*
X004826Y011853D03*
D13*
X005279Y005652D03*
X005279Y005062D03*
X006795Y003585D03*
X007386Y003585D03*
D14*
X008941Y002345D03*
X008941Y001833D03*
X009610Y001833D03*
X009610Y002345D03*
X007413Y005743D03*
X007413Y006255D03*
X007413Y007160D03*
X007413Y007672D03*
X006941Y007475D03*
X006500Y007227D03*
X006500Y007739D03*
X006941Y007987D03*
X008303Y008211D03*
X008303Y008723D03*
X005200Y006794D03*
X005200Y006282D03*
X005358Y003644D03*
X005358Y003133D03*
X005358Y002306D03*
X005358Y001794D03*
X004452Y008881D03*
X004452Y009393D03*
D15*
X005958Y006740D03*
X006214Y006740D03*
X006470Y006740D03*
X006726Y006740D03*
X007966Y006700D03*
X008222Y006700D03*
X008478Y006700D03*
X008734Y006700D03*
X008734Y005037D03*
X008478Y005037D03*
X008222Y005037D03*
X007966Y005037D03*
X006726Y005076D03*
X006470Y005076D03*
X006214Y005076D03*
X005958Y005076D03*
D16*
X005260Y007286D03*
X005260Y007837D03*
X005929Y007837D03*
D17*
X005821Y007473D02*
X005722Y007375D01*
X005722Y007099D01*
X006136Y007099D01*
X006136Y007473D01*
X005821Y007473D01*
X005807Y007460D02*
X006136Y007460D01*
X006136Y007441D02*
X005789Y007441D01*
X005770Y007423D02*
X006136Y007423D01*
X006136Y007404D02*
X005752Y007404D01*
X005733Y007386D02*
X006136Y007386D01*
X006136Y007367D02*
X005722Y007367D01*
X005722Y007349D02*
X006136Y007349D01*
X006136Y007330D02*
X005722Y007330D01*
X005722Y007312D02*
X006136Y007312D01*
X006136Y007293D02*
X005722Y007293D01*
X005722Y007275D02*
X006136Y007275D01*
X006136Y007256D02*
X005722Y007256D01*
X005722Y007238D02*
X006136Y007238D01*
X006136Y007219D02*
X005722Y007219D01*
X005722Y007201D02*
X006136Y007201D01*
X006136Y007182D02*
X005722Y007182D01*
X005722Y007164D02*
X006136Y007164D01*
X006136Y007145D02*
X005722Y007145D01*
X005722Y007127D02*
X006136Y007127D01*
X006136Y007108D02*
X005722Y007108D01*
D18*
X006106Y002800D03*
X006106Y002300D03*
X006106Y001800D03*
X006106Y001300D03*
X008153Y001300D03*
X008153Y001800D03*
X008153Y002300D03*
X008153Y002800D03*
M02*
