G75*
%MOIN*%
%OFA0B0*%
%FSLAX24Y24*%
%IPPOS*%
%LPD*%
%AMOC8*
5,1,8,0,0,1.08239X$1,22.5*
%
%ADD10C,0.0000*%
%ADD11C,0.0060*%
%ADD12C,0.0050*%
D10*
X002917Y000952D02*
X002917Y013221D01*
X011169Y013221D01*
X011169Y000948D01*
X002917Y000952D01*
D11*
X006690Y001697D02*
X006690Y002797D01*
X006692Y002814D01*
X006696Y002831D01*
X006703Y002847D01*
X006713Y002861D01*
X006726Y002874D01*
X006740Y002884D01*
X006756Y002891D01*
X006773Y002895D01*
X006790Y002897D01*
X007390Y002897D01*
X007407Y002895D01*
X007424Y002891D01*
X007440Y002884D01*
X007454Y002874D01*
X007467Y002861D01*
X007477Y002847D01*
X007484Y002831D01*
X007488Y002814D01*
X007490Y002797D01*
X007490Y001697D01*
X007488Y001680D01*
X007484Y001663D01*
X007477Y001647D01*
X007467Y001633D01*
X007454Y001620D01*
X007440Y001610D01*
X007424Y001603D01*
X007407Y001599D01*
X007390Y001597D01*
X006790Y001597D01*
X006773Y001599D01*
X006756Y001603D01*
X006740Y001610D01*
X006726Y001620D01*
X006713Y001633D01*
X006703Y001647D01*
X006696Y001663D01*
X006692Y001680D01*
X006690Y001697D01*
X006790Y003605D02*
X007390Y003605D01*
X007407Y003607D01*
X007424Y003611D01*
X007440Y003618D01*
X007454Y003628D01*
X007467Y003641D01*
X007477Y003655D01*
X007484Y003671D01*
X007488Y003688D01*
X007490Y003705D01*
X007490Y004805D01*
X007488Y004822D01*
X007484Y004839D01*
X007477Y004855D01*
X007467Y004869D01*
X007454Y004882D01*
X007440Y004892D01*
X007424Y004899D01*
X007407Y004903D01*
X007390Y004905D01*
X006790Y004905D01*
X006773Y004903D01*
X006756Y004899D01*
X006740Y004892D01*
X006726Y004882D01*
X006713Y004869D01*
X006703Y004855D01*
X006696Y004839D01*
X006692Y004822D01*
X006690Y004805D01*
X006690Y003705D01*
X006692Y003688D01*
X006696Y003671D01*
X006703Y003655D01*
X006713Y003641D01*
X006726Y003628D01*
X006740Y003618D01*
X006756Y003611D01*
X006773Y003607D01*
X006790Y003605D01*
X008029Y003705D02*
X008029Y004805D01*
X008031Y004822D01*
X008035Y004839D01*
X008042Y004855D01*
X008052Y004869D01*
X008065Y004882D01*
X008079Y004892D01*
X008095Y004899D01*
X008112Y004903D01*
X008129Y004905D01*
X008729Y004905D01*
X008746Y004903D01*
X008763Y004899D01*
X008779Y004892D01*
X008793Y004882D01*
X008806Y004869D01*
X008816Y004855D01*
X008823Y004839D01*
X008827Y004822D01*
X008829Y004805D01*
X008829Y003705D01*
X008827Y003688D01*
X008823Y003671D01*
X008816Y003655D01*
X008806Y003641D01*
X008793Y003628D01*
X008779Y003618D01*
X008763Y003611D01*
X008746Y003607D01*
X008729Y003605D01*
X008129Y003605D01*
X008112Y003607D01*
X008095Y003611D01*
X008079Y003618D01*
X008065Y003628D01*
X008052Y003641D01*
X008042Y003655D01*
X008035Y003671D01*
X008031Y003688D01*
X008029Y003705D01*
D12*
X007954Y003774D02*
X007954Y003624D01*
X007879Y003549D01*
X007804Y003549D01*
X007729Y003624D01*
X007729Y003774D01*
X007654Y003849D01*
X007579Y003849D01*
X007504Y003774D01*
X007504Y003624D01*
X007579Y003549D01*
X007879Y003849D02*
X007954Y003774D01*
X007954Y004159D02*
X007954Y004309D01*
X007954Y004234D02*
X007579Y004234D01*
X007504Y004159D01*
X007504Y004084D01*
X007579Y004009D01*
X007504Y004469D02*
X007504Y004770D01*
X007504Y004619D02*
X007954Y004619D01*
X007804Y004469D01*
X006616Y004544D02*
X006541Y004469D01*
X006616Y004544D02*
X006616Y004695D01*
X006541Y004770D01*
X006465Y004770D01*
X006165Y004469D01*
X006165Y004770D01*
X006240Y004234D02*
X006616Y004234D01*
X006616Y004159D02*
X006616Y004309D01*
X006240Y004234D02*
X006165Y004159D01*
X006165Y004084D01*
X006240Y004009D01*
X006240Y003849D02*
X006165Y003774D01*
X006165Y003624D01*
X006240Y003549D01*
X006390Y003624D02*
X006390Y003774D01*
X006315Y003849D01*
X006240Y003849D01*
X006390Y003624D02*
X006465Y003549D01*
X006541Y003549D01*
X006616Y003624D01*
X006616Y003774D01*
X006541Y003849D01*
X007565Y002768D02*
X007565Y002618D01*
X007640Y002543D01*
X007640Y002307D02*
X008016Y002307D01*
X008016Y002232D02*
X008016Y002382D01*
X007941Y002543D02*
X008016Y002618D01*
X008016Y002768D01*
X007941Y002843D01*
X007865Y002843D01*
X007790Y002768D01*
X007715Y002843D01*
X007640Y002843D01*
X007565Y002768D01*
X007790Y002768D02*
X007790Y002693D01*
X007640Y002307D02*
X007565Y002232D01*
X007565Y002157D01*
X007640Y002082D01*
X007640Y001922D02*
X007565Y001847D01*
X007565Y001697D01*
X007640Y001622D01*
X007790Y001697D02*
X007790Y001847D01*
X007715Y001922D01*
X007640Y001922D01*
X007790Y001697D02*
X007865Y001622D01*
X007941Y001622D01*
X008016Y001697D01*
X008016Y001847D01*
X007941Y001922D01*
M02*
