G75*
%MOIN*%
%OFA0B0*%
%FSLAX24Y24*%
%IPPOS*%
%LPD*%
%AMOC8*
5,1,8,0,0,1.08239X$1,22.5*
%
%ADD10R,0.0630X0.0460*%
%ADD11C,0.0740*%
%ADD12C,0.0100*%
%ADD13C,0.0242*%
D10*
X007090Y001947D03*
X007090Y002547D03*
X007090Y003955D03*
X007090Y004555D03*
X008429Y004555D03*
X008429Y003955D03*
D11*
X010535Y003562D03*
X010535Y002562D03*
X010535Y001562D03*
X010535Y004562D03*
X010535Y005562D03*
X010535Y006562D03*
X010535Y007562D03*
X010535Y008562D03*
X010535Y009562D03*
X010535Y010562D03*
X010535Y011562D03*
X010535Y012562D03*
X003547Y012566D03*
X003547Y011566D03*
X003547Y010566D03*
X003547Y009566D03*
X003547Y008566D03*
X003547Y007570D03*
X003547Y006570D03*
X003547Y005570D03*
X003547Y004570D03*
X003547Y003566D03*
X003547Y002566D03*
X003547Y001566D03*
D12*
X003313Y001101D02*
X003067Y001102D01*
X003067Y001362D01*
X003102Y001293D01*
X003150Y001227D01*
X003208Y001169D01*
X003274Y001121D01*
X003313Y001101D01*
X003242Y001145D02*
X003067Y001145D01*
X003067Y001243D02*
X003139Y001243D01*
X003078Y001342D02*
X003067Y001342D01*
X003067Y001769D02*
X003067Y002380D01*
X003111Y002274D01*
X003255Y002130D01*
X003067Y002130D01*
X003067Y002228D02*
X003157Y002228D01*
X003089Y002327D02*
X003067Y002327D01*
X003255Y002130D02*
X003407Y002067D01*
X003347Y002048D01*
X003274Y002010D01*
X003208Y001962D01*
X003150Y001905D01*
X003102Y001838D01*
X003067Y001769D01*
X003067Y001834D02*
X003100Y001834D01*
X003067Y001933D02*
X003178Y001933D01*
X003067Y002031D02*
X003315Y002031D01*
X003687Y002067D02*
X003838Y002130D01*
X006631Y002130D01*
X006631Y002228D02*
X003937Y002228D01*
X003983Y002274D02*
X003838Y002130D01*
X003779Y002031D02*
X006631Y002031D01*
X006631Y001933D02*
X003915Y001933D01*
X003944Y001905D02*
X003886Y001962D01*
X003819Y002010D01*
X003747Y002048D01*
X003687Y002067D01*
X003944Y001905D02*
X003992Y001838D01*
X004029Y001765D01*
X004054Y001688D01*
X004065Y001616D01*
X003597Y001616D01*
X003597Y001516D01*
X004065Y001516D01*
X004054Y001444D01*
X004029Y001366D01*
X003992Y001293D01*
X003944Y001227D01*
X003886Y001169D01*
X003819Y001121D01*
X003781Y001101D01*
X010310Y001098D01*
X010244Y001126D01*
X010099Y001270D01*
X010021Y001459D01*
X010021Y001664D01*
X010099Y001853D01*
X010244Y001998D01*
X010398Y002062D01*
X010244Y002126D01*
X010099Y002270D01*
X010021Y002459D01*
X010021Y002664D01*
X010099Y002853D01*
X010244Y002998D01*
X010398Y003062D01*
X010244Y003126D01*
X010099Y003270D01*
X010021Y003459D01*
X010021Y003664D01*
X010099Y003853D01*
X010244Y003998D01*
X010398Y004062D01*
X010244Y004126D01*
X010099Y004270D01*
X010021Y004459D01*
X010021Y004664D01*
X010099Y004853D01*
X010244Y004998D01*
X010398Y005062D01*
X010244Y005126D01*
X010099Y005270D01*
X010021Y005459D01*
X010021Y005664D01*
X010099Y005853D01*
X010244Y005998D01*
X010398Y006062D01*
X010244Y006126D01*
X010099Y006270D01*
X010021Y006459D01*
X010021Y006664D01*
X010099Y006853D01*
X010244Y006998D01*
X010398Y007062D01*
X010244Y007126D01*
X010099Y007270D01*
X010021Y007459D01*
X010021Y007664D01*
X010099Y007853D01*
X010244Y007998D01*
X010398Y008062D01*
X010244Y008126D01*
X010099Y008270D01*
X010021Y008459D01*
X010021Y008664D01*
X010099Y008853D01*
X010244Y008998D01*
X010398Y009062D01*
X010244Y009126D01*
X010099Y009270D01*
X010021Y009459D01*
X010021Y009664D01*
X010099Y009853D01*
X010244Y009998D01*
X010398Y010062D01*
X010244Y010126D01*
X010099Y010270D01*
X010021Y010459D01*
X010021Y010664D01*
X010099Y010853D01*
X010244Y010998D01*
X010398Y011062D01*
X010244Y011126D01*
X010099Y011270D01*
X010021Y011459D01*
X010021Y011664D01*
X010099Y011853D01*
X010244Y011998D01*
X010398Y012062D01*
X010244Y012126D01*
X010099Y012270D01*
X010021Y012459D01*
X010021Y012664D01*
X010099Y012853D01*
X010244Y012998D01*
X010420Y013071D01*
X003672Y013071D01*
X003838Y013002D01*
X003983Y012857D01*
X004018Y012772D01*
X008533Y012772D01*
X008596Y012709D01*
X008710Y012595D01*
X008710Y009261D01*
X008596Y009147D01*
X008576Y009127D01*
X008576Y009084D01*
X008536Y008986D01*
X008461Y008912D01*
X008364Y008871D01*
X008258Y008871D01*
X008160Y008912D01*
X008086Y008986D01*
X008045Y009084D01*
X008045Y009189D01*
X008086Y009287D01*
X008160Y009362D01*
X008258Y009402D01*
X008301Y009402D01*
X008321Y009422D01*
X008321Y012383D01*
X004028Y012383D01*
X003983Y012274D01*
X003838Y012130D01*
X003684Y012066D01*
X003838Y012002D01*
X003983Y011857D01*
X004061Y011668D01*
X004061Y011463D01*
X003983Y011274D01*
X003838Y011130D01*
X003684Y011066D01*
X003838Y011002D01*
X003983Y010857D01*
X004061Y010668D01*
X004061Y010463D01*
X003983Y010274D01*
X003838Y010130D01*
X003684Y010066D01*
X003838Y010002D01*
X003983Y009857D01*
X004061Y009668D01*
X004061Y009463D01*
X003983Y009274D01*
X003838Y009130D01*
X003684Y009066D01*
X003838Y009002D01*
X003983Y008857D01*
X004061Y008668D01*
X004061Y008463D01*
X003988Y008286D01*
X004679Y008977D01*
X006462Y008977D01*
X006576Y008863D01*
X006822Y008617D01*
X006869Y008665D01*
X006967Y008705D01*
X007072Y008705D01*
X007170Y008665D01*
X007244Y008590D01*
X007285Y008493D01*
X007285Y008387D01*
X007244Y008289D01*
X007226Y008271D01*
X007226Y006953D01*
X007297Y006882D01*
X007340Y006882D01*
X007437Y006842D01*
X007512Y006767D01*
X007553Y006670D01*
X007553Y006564D01*
X007512Y006467D01*
X007437Y006392D01*
X007340Y006351D01*
X007234Y006351D01*
X007137Y006392D01*
X007062Y006467D01*
X007022Y006564D01*
X007022Y006588D01*
X006379Y005945D01*
X008244Y005945D01*
X008286Y005988D01*
X008384Y006028D01*
X008428Y006028D01*
X007644Y006812D01*
X007644Y011458D01*
X007325Y011777D01*
X005696Y011777D01*
X005666Y011746D01*
X005568Y011706D01*
X005463Y011706D01*
X005365Y011746D01*
X005290Y011821D01*
X005250Y011918D01*
X005250Y012024D01*
X005290Y012122D01*
X005365Y012196D01*
X005463Y012237D01*
X005568Y012237D01*
X005666Y012196D01*
X005696Y012166D01*
X007486Y012166D01*
X007919Y011733D01*
X008033Y011619D01*
X008033Y006973D01*
X009100Y005906D01*
X009214Y005792D01*
X009214Y003430D01*
X009304Y003339D01*
X009348Y003339D01*
X009445Y003299D01*
X009520Y003224D01*
X009560Y003126D01*
X009560Y003021D01*
X009520Y002923D01*
X009489Y002893D01*
X009489Y002796D01*
X009376Y002682D01*
X008446Y001752D01*
X007550Y001752D01*
X007550Y001657D01*
X007465Y001572D01*
X006715Y001572D01*
X006631Y001657D01*
X006631Y002237D01*
X006641Y002247D01*
X006631Y002257D01*
X006631Y002371D01*
X004023Y002371D01*
X003983Y002274D01*
X004005Y002327D02*
X006631Y002327D01*
X006631Y002760D02*
X004023Y002760D01*
X003983Y002857D01*
X003838Y003002D01*
X003684Y003066D01*
X003838Y003130D01*
X003983Y003274D01*
X004061Y003463D01*
X004061Y003668D01*
X003983Y003857D01*
X003838Y004002D01*
X003679Y004068D01*
X003838Y004134D01*
X003983Y004278D01*
X004061Y004467D01*
X004061Y004672D01*
X004021Y004769D01*
X005005Y005753D01*
X005558Y005753D01*
X004967Y005162D01*
X004967Y004711D01*
X004936Y004681D01*
X004896Y004583D01*
X004896Y004478D01*
X004936Y004380D01*
X005011Y004305D01*
X005108Y004265D01*
X005214Y004265D01*
X005312Y004305D01*
X005386Y004380D01*
X005427Y004478D01*
X005427Y004583D01*
X005386Y004681D01*
X005356Y004711D01*
X005356Y005001D01*
X005911Y005556D01*
X006853Y005556D01*
X006825Y005489D01*
X006825Y005383D01*
X006865Y005285D01*
X006896Y005255D01*
X006896Y004929D01*
X006715Y004929D01*
X006631Y004845D01*
X006631Y004265D01*
X006641Y004255D01*
X006631Y004245D01*
X006631Y003665D01*
X006715Y003580D01*
X006896Y003580D01*
X006896Y002921D01*
X006715Y002921D01*
X006631Y002837D01*
X006631Y002760D01*
X006631Y002819D02*
X003999Y002819D01*
X003923Y002918D02*
X006712Y002918D01*
X006896Y003016D02*
X003804Y003016D01*
X003802Y003115D02*
X006896Y003115D01*
X006896Y003213D02*
X003922Y003213D01*
X003999Y003312D02*
X006896Y003312D01*
X006896Y003410D02*
X004039Y003410D01*
X004061Y003509D02*
X006896Y003509D01*
X006688Y003607D02*
X004061Y003607D01*
X004046Y003706D02*
X006631Y003706D01*
X006631Y003804D02*
X004005Y003804D01*
X003938Y003903D02*
X006631Y003903D01*
X006631Y004001D02*
X003839Y004001D01*
X003757Y004100D02*
X006631Y004100D01*
X006631Y004198D02*
X003903Y004198D01*
X003991Y004297D02*
X005031Y004297D01*
X004930Y004395D02*
X004032Y004395D01*
X004061Y004494D02*
X004896Y004494D01*
X004899Y004592D02*
X004061Y004592D01*
X004054Y004691D02*
X004946Y004691D01*
X004967Y004789D02*
X004041Y004789D01*
X004140Y004888D02*
X004967Y004888D01*
X004967Y004986D02*
X004238Y004986D01*
X004337Y005085D02*
X004967Y005085D01*
X004988Y005183D02*
X004435Y005183D01*
X004534Y005282D02*
X005086Y005282D01*
X005185Y005380D02*
X004632Y005380D01*
X004731Y005479D02*
X005283Y005479D01*
X005382Y005577D02*
X004829Y005577D01*
X004928Y005676D02*
X005480Y005676D01*
X005735Y005380D02*
X006826Y005380D01*
X006825Y005479D02*
X005833Y005479D01*
X005830Y005751D02*
X008425Y005751D01*
X008437Y005763D01*
X008429Y005755D01*
X008429Y004555D01*
X008623Y004929D02*
X008623Y005574D01*
X008662Y005612D01*
X008702Y005710D01*
X008702Y005754D01*
X008825Y005631D01*
X008825Y004908D01*
X008804Y004929D01*
X008623Y004929D01*
X008623Y004986D02*
X008825Y004986D01*
X008825Y005085D02*
X008623Y005085D01*
X008623Y005183D02*
X008825Y005183D01*
X008825Y005282D02*
X008623Y005282D01*
X008623Y005380D02*
X008825Y005380D01*
X008825Y005479D02*
X008623Y005479D01*
X008627Y005577D02*
X008825Y005577D01*
X008780Y005676D02*
X008688Y005676D01*
X009019Y005711D02*
X009019Y003349D01*
X009295Y003074D01*
X009295Y002877D01*
X008365Y001947D01*
X007090Y001947D01*
X007090Y001971D01*
X006631Y001834D02*
X003994Y001834D01*
X004038Y001736D02*
X006631Y001736D01*
X006651Y001637D02*
X004062Y001637D01*
X004053Y001440D02*
X010029Y001440D01*
X010021Y001539D02*
X003597Y001539D01*
X003955Y001243D02*
X010126Y001243D01*
X010069Y001342D02*
X004016Y001342D01*
X003852Y001145D02*
X010225Y001145D01*
X010021Y001637D02*
X007530Y001637D01*
X007550Y001736D02*
X010050Y001736D01*
X010091Y001834D02*
X008527Y001834D01*
X008626Y001933D02*
X010178Y001933D01*
X010324Y002031D02*
X008724Y002031D01*
X008823Y002130D02*
X010240Y002130D01*
X010141Y002228D02*
X008921Y002228D01*
X009020Y002327D02*
X010076Y002327D01*
X010035Y002425D02*
X009118Y002425D01*
X009217Y002524D02*
X010021Y002524D01*
X010021Y002622D02*
X009315Y002622D01*
X009414Y002721D02*
X010044Y002721D01*
X010085Y002819D02*
X009489Y002819D01*
X009514Y002918D02*
X010163Y002918D01*
X010288Y003016D02*
X009559Y003016D01*
X009560Y003115D02*
X010270Y003115D01*
X010156Y003213D02*
X009525Y003213D01*
X009414Y003312D02*
X010082Y003312D01*
X010041Y003410D02*
X009233Y003410D01*
X009214Y003509D02*
X010021Y003509D01*
X010021Y003607D02*
X009214Y003607D01*
X009214Y003706D02*
X010038Y003706D01*
X010079Y003804D02*
X009214Y003804D01*
X009214Y003903D02*
X010148Y003903D01*
X010251Y004001D02*
X009214Y004001D01*
X009214Y004100D02*
X010306Y004100D01*
X010171Y004198D02*
X009214Y004198D01*
X009214Y004297D02*
X010088Y004297D01*
X010047Y004395D02*
X009214Y004395D01*
X009214Y004494D02*
X010021Y004494D01*
X010021Y004592D02*
X009214Y004592D01*
X009214Y004691D02*
X010032Y004691D01*
X010072Y004789D02*
X009214Y004789D01*
X009214Y004888D02*
X010133Y004888D01*
X010232Y004986D02*
X009214Y004986D01*
X009214Y005085D02*
X010343Y005085D01*
X010186Y005183D02*
X009214Y005183D01*
X009214Y005282D02*
X010094Y005282D01*
X010053Y005380D02*
X009214Y005380D01*
X009214Y005479D02*
X010021Y005479D01*
X010021Y005577D02*
X009214Y005577D01*
X009214Y005676D02*
X010025Y005676D01*
X010066Y005774D02*
X009214Y005774D01*
X009133Y005873D02*
X010118Y005873D01*
X010217Y005971D02*
X009035Y005971D01*
X008936Y006070D02*
X010379Y006070D01*
X010201Y006168D02*
X008838Y006168D01*
X008739Y006267D02*
X010103Y006267D01*
X010060Y006365D02*
X008641Y006365D01*
X008542Y006464D02*
X010021Y006464D01*
X010021Y006562D02*
X008444Y006562D01*
X008345Y006661D02*
X010021Y006661D01*
X010060Y006759D02*
X008247Y006759D01*
X008148Y006858D02*
X010103Y006858D01*
X010202Y006956D02*
X008050Y006956D01*
X008033Y007055D02*
X010381Y007055D01*
X010216Y007153D02*
X008033Y007153D01*
X008033Y007252D02*
X010118Y007252D01*
X010066Y007350D02*
X008033Y007350D01*
X008033Y007449D02*
X010025Y007449D01*
X010021Y007547D02*
X008033Y007547D01*
X008033Y007646D02*
X010021Y007646D01*
X010054Y007744D02*
X008033Y007744D01*
X008033Y007843D02*
X010095Y007843D01*
X010187Y007941D02*
X008033Y007941D01*
X008033Y008040D02*
X010344Y008040D01*
X010231Y008138D02*
X008033Y008138D01*
X008033Y008237D02*
X010133Y008237D01*
X010072Y008335D02*
X008033Y008335D01*
X008033Y008434D02*
X010031Y008434D01*
X010021Y008532D02*
X008033Y008532D01*
X008033Y008631D02*
X010021Y008631D01*
X010048Y008729D02*
X008033Y008729D01*
X008033Y008828D02*
X010088Y008828D01*
X010172Y008926D02*
X008476Y008926D01*
X008552Y009025D02*
X010308Y009025D01*
X010250Y009123D02*
X008576Y009123D01*
X008671Y009222D02*
X010148Y009222D01*
X010078Y009320D02*
X008710Y009320D01*
X008710Y009419D02*
X010038Y009419D01*
X010021Y009517D02*
X008710Y009517D01*
X008710Y009616D02*
X010021Y009616D01*
X010041Y009714D02*
X008710Y009714D01*
X008710Y009813D02*
X010082Y009813D01*
X010157Y009911D02*
X008710Y009911D01*
X008710Y010010D02*
X010272Y010010D01*
X010286Y010108D02*
X008710Y010108D01*
X008710Y010207D02*
X010163Y010207D01*
X010085Y010305D02*
X008710Y010305D01*
X008710Y010404D02*
X010044Y010404D01*
X010021Y010502D02*
X008710Y010502D01*
X008710Y010601D02*
X010021Y010601D01*
X010035Y010699D02*
X008710Y010699D01*
X008710Y010798D02*
X010076Y010798D01*
X010142Y010896D02*
X008710Y010896D01*
X008710Y010995D02*
X010240Y010995D01*
X010322Y011093D02*
X008710Y011093D01*
X008710Y011192D02*
X010178Y011192D01*
X010091Y011290D02*
X008710Y011290D01*
X008710Y011389D02*
X010050Y011389D01*
X010021Y011487D02*
X008710Y011487D01*
X008710Y011586D02*
X010021Y011586D01*
X010029Y011684D02*
X008710Y011684D01*
X008710Y011783D02*
X010070Y011783D01*
X010127Y011881D02*
X008710Y011881D01*
X008710Y011980D02*
X010225Y011980D01*
X010358Y012078D02*
X008710Y012078D01*
X008710Y012177D02*
X010193Y012177D01*
X010097Y012275D02*
X008710Y012275D01*
X008710Y012374D02*
X010056Y012374D01*
X010021Y012472D02*
X008710Y012472D01*
X008710Y012571D02*
X010021Y012571D01*
X010023Y012669D02*
X008636Y012669D01*
X008537Y012768D02*
X010064Y012768D01*
X010112Y012866D02*
X003974Y012866D01*
X003876Y012965D02*
X010210Y012965D01*
X010401Y013063D02*
X003690Y013063D01*
X003422Y013071D02*
X003255Y013002D01*
X003111Y012857D01*
X003067Y012752D01*
X003067Y013071D01*
X003422Y013071D01*
X003403Y013063D02*
X003067Y013063D01*
X003067Y012965D02*
X003218Y012965D01*
X003120Y012866D02*
X003067Y012866D01*
X003067Y012768D02*
X003074Y012768D01*
X003067Y012380D02*
X003111Y012274D01*
X003255Y012130D01*
X003410Y012066D01*
X003255Y012002D01*
X003111Y011857D01*
X003067Y011752D01*
X003067Y012380D01*
X003067Y012374D02*
X003070Y012374D01*
X003067Y012275D02*
X003110Y012275D01*
X003067Y012177D02*
X003208Y012177D01*
X003067Y012078D02*
X003380Y012078D01*
X003233Y011980D02*
X003067Y011980D01*
X003067Y011881D02*
X003135Y011881D01*
X003080Y011783D02*
X003067Y011783D01*
X003067Y011380D02*
X003111Y011274D01*
X003255Y011130D01*
X003410Y011066D01*
X003255Y011002D01*
X003111Y010857D01*
X003067Y010752D01*
X003067Y011380D01*
X003067Y011290D02*
X003104Y011290D01*
X003067Y011192D02*
X003193Y011192D01*
X003067Y011093D02*
X003343Y011093D01*
X003248Y010995D02*
X003067Y010995D01*
X003067Y010896D02*
X003150Y010896D01*
X003086Y010798D02*
X003067Y010798D01*
X003067Y010380D02*
X003111Y010274D01*
X003255Y010130D01*
X003410Y010066D01*
X003255Y010002D01*
X003111Y009857D01*
X003067Y009752D01*
X003067Y010380D01*
X003067Y010305D02*
X003098Y010305D01*
X003067Y010207D02*
X003178Y010207D01*
X003067Y010108D02*
X003307Y010108D01*
X003274Y010010D02*
X003067Y010010D01*
X003067Y009911D02*
X003165Y009911D01*
X003092Y009813D02*
X003067Y009813D01*
X003067Y009380D02*
X003111Y009274D01*
X003255Y009130D01*
X003410Y009066D01*
X003255Y009002D01*
X003111Y008857D01*
X003067Y008752D01*
X003067Y009380D01*
X003067Y009320D02*
X003092Y009320D01*
X003067Y009222D02*
X003163Y009222D01*
X003067Y009123D02*
X003271Y009123D01*
X003310Y009025D02*
X003067Y009025D01*
X003067Y008926D02*
X003180Y008926D01*
X003099Y008828D02*
X003067Y008828D01*
X003067Y008380D02*
X003067Y007755D01*
X003111Y007861D01*
X003255Y008006D01*
X003405Y008068D01*
X003255Y008130D01*
X003111Y008274D01*
X003067Y008380D01*
X003067Y008335D02*
X003086Y008335D01*
X003067Y008237D02*
X003148Y008237D01*
X003067Y008138D02*
X003247Y008138D01*
X003337Y008040D02*
X003067Y008040D01*
X003067Y007941D02*
X003191Y007941D01*
X003103Y007843D02*
X003067Y007843D01*
X003067Y007384D02*
X003111Y007278D01*
X003255Y007134D01*
X003410Y007070D01*
X003255Y007006D01*
X003111Y006861D01*
X003067Y006755D01*
X003067Y007384D01*
X003067Y007350D02*
X003081Y007350D01*
X003067Y007252D02*
X003137Y007252D01*
X003067Y007153D02*
X003236Y007153D01*
X003373Y007055D02*
X003067Y007055D01*
X003067Y006956D02*
X003206Y006956D01*
X003109Y006858D02*
X003067Y006858D01*
X003067Y006759D02*
X003069Y006759D01*
X003067Y006384D02*
X003111Y006278D01*
X003255Y006134D01*
X003410Y006070D01*
X003255Y006006D01*
X003111Y005861D01*
X003067Y005755D01*
X003067Y006384D01*
X003067Y006365D02*
X003075Y006365D01*
X003067Y006267D02*
X003122Y006267D01*
X003067Y006168D02*
X003221Y006168D01*
X003067Y006070D02*
X003410Y006070D01*
X003221Y005971D02*
X003067Y005971D01*
X003067Y005873D02*
X003122Y005873D01*
X003075Y005774D02*
X003067Y005774D01*
X003067Y005384D02*
X003111Y005278D01*
X003255Y005134D01*
X003410Y005070D01*
X003255Y005006D01*
X003111Y004861D01*
X003067Y004755D01*
X003067Y005384D01*
X003067Y005380D02*
X003069Y005380D01*
X003067Y005282D02*
X003109Y005282D01*
X003067Y005183D02*
X003206Y005183D01*
X003067Y005085D02*
X003373Y005085D01*
X003236Y004986D02*
X003067Y004986D01*
X003067Y004888D02*
X003137Y004888D01*
X003081Y004789D02*
X003067Y004789D01*
X003067Y004384D02*
X003067Y003752D01*
X003111Y003857D01*
X003255Y004002D01*
X003414Y004068D01*
X003255Y004134D01*
X003111Y004278D01*
X003067Y004384D01*
X003067Y004297D02*
X003103Y004297D01*
X003067Y004198D02*
X003191Y004198D01*
X003067Y004100D02*
X003337Y004100D01*
X003255Y004001D02*
X003067Y004001D01*
X003067Y003903D02*
X003156Y003903D01*
X003089Y003804D02*
X003067Y003804D01*
X003067Y003380D02*
X003067Y002752D01*
X003111Y002857D01*
X003255Y003002D01*
X003410Y003066D01*
X003255Y003130D01*
X003111Y003274D01*
X003067Y003380D01*
X003067Y003312D02*
X003095Y003312D01*
X003067Y003213D02*
X003172Y003213D01*
X003067Y003115D02*
X003292Y003115D01*
X003290Y003016D02*
X003067Y003016D01*
X003067Y002918D02*
X003171Y002918D01*
X003095Y002819D02*
X003067Y002819D01*
X003547Y002566D02*
X007071Y002566D01*
X007090Y002547D01*
X007090Y003955D01*
X008429Y003955D01*
X008804Y003580D02*
X008825Y003601D01*
X008825Y003269D01*
X009029Y003064D01*
X009029Y003021D01*
X009069Y002926D01*
X008284Y002141D01*
X007550Y002141D01*
X007550Y002237D01*
X007540Y002247D01*
X007550Y002257D01*
X007550Y002837D01*
X007465Y002921D01*
X007285Y002921D01*
X007285Y003580D01*
X007465Y003580D01*
X007550Y003665D01*
X007550Y003760D01*
X007969Y003760D01*
X007969Y003665D01*
X008054Y003580D01*
X008804Y003580D01*
X008825Y003509D02*
X007285Y003509D01*
X007285Y003410D02*
X008825Y003410D01*
X008825Y003312D02*
X007285Y003312D01*
X007285Y003213D02*
X008880Y003213D01*
X008979Y003115D02*
X007285Y003115D01*
X007285Y003016D02*
X009031Y003016D01*
X009061Y002918D02*
X007469Y002918D01*
X007550Y002819D02*
X008962Y002819D01*
X008864Y002721D02*
X007550Y002721D01*
X007550Y002622D02*
X008765Y002622D01*
X008667Y002524D02*
X007550Y002524D01*
X007550Y002425D02*
X008568Y002425D01*
X008470Y002327D02*
X007550Y002327D01*
X007550Y002228D02*
X008371Y002228D01*
X008027Y003607D02*
X007492Y003607D01*
X007550Y003706D02*
X007969Y003706D01*
X007969Y004149D02*
X007550Y004149D01*
X007550Y004245D01*
X007540Y004255D01*
X007550Y004265D01*
X007550Y004845D01*
X007465Y004929D01*
X007285Y004929D01*
X007285Y005255D01*
X007315Y005285D01*
X007356Y005383D01*
X007356Y005489D01*
X007328Y005556D01*
X008234Y005556D01*
X008234Y004929D01*
X008054Y004929D01*
X007969Y004845D01*
X007969Y004265D01*
X007979Y004255D01*
X007969Y004245D01*
X007969Y004149D01*
X007969Y004198D02*
X007550Y004198D01*
X007550Y004297D02*
X007969Y004297D01*
X007969Y004395D02*
X007550Y004395D01*
X007550Y004494D02*
X007969Y004494D01*
X007969Y004592D02*
X007550Y004592D01*
X007550Y004691D02*
X007969Y004691D01*
X007969Y004789D02*
X007550Y004789D01*
X007507Y004888D02*
X008012Y004888D01*
X008234Y004986D02*
X007285Y004986D01*
X007285Y005085D02*
X008234Y005085D01*
X008234Y005183D02*
X007285Y005183D01*
X007312Y005282D02*
X008234Y005282D01*
X008234Y005380D02*
X007355Y005380D01*
X007356Y005479D02*
X008234Y005479D01*
X008270Y005971D02*
X006405Y005971D01*
X006503Y006070D02*
X008386Y006070D01*
X008288Y006168D02*
X006602Y006168D01*
X006700Y006267D02*
X008189Y006267D01*
X008091Y006365D02*
X007373Y006365D01*
X007509Y006464D02*
X007992Y006464D01*
X007894Y006562D02*
X007552Y006562D01*
X007553Y006661D02*
X007795Y006661D01*
X007697Y006759D02*
X007516Y006759D01*
X007400Y006858D02*
X007644Y006858D01*
X007644Y006956D02*
X007226Y006956D01*
X007226Y007055D02*
X007644Y007055D01*
X007644Y007153D02*
X007226Y007153D01*
X007226Y007252D02*
X007644Y007252D01*
X007644Y007350D02*
X007226Y007350D01*
X007226Y007449D02*
X007644Y007449D01*
X007644Y007547D02*
X007226Y007547D01*
X007226Y007646D02*
X007644Y007646D01*
X007644Y007744D02*
X007226Y007744D01*
X007226Y007843D02*
X007644Y007843D01*
X007644Y007941D02*
X007226Y007941D01*
X007226Y008040D02*
X007644Y008040D01*
X007644Y008138D02*
X007226Y008138D01*
X007226Y008237D02*
X007644Y008237D01*
X007644Y008335D02*
X007263Y008335D01*
X007285Y008434D02*
X007644Y008434D01*
X007644Y008532D02*
X007268Y008532D01*
X007204Y008631D02*
X007644Y008631D01*
X007644Y008729D02*
X006710Y008729D01*
X006808Y008631D02*
X006835Y008631D01*
X006697Y008467D02*
X006382Y008782D01*
X004760Y008782D01*
X003547Y007570D01*
X003956Y007252D02*
X005956Y007252D01*
X005955Y007350D02*
X004013Y007350D01*
X003983Y007278D02*
X004061Y007467D01*
X004061Y007672D01*
X004021Y007769D01*
X004840Y008588D01*
X006124Y008588D01*
X006085Y008493D01*
X006085Y008445D01*
X006064Y008425D01*
X006007Y008368D01*
X005951Y008312D01*
X005951Y008311D01*
X005950Y008311D01*
X005951Y008231D01*
X005951Y008151D01*
X005951Y008150D01*
X005958Y006709D01*
X005836Y006587D01*
X004742Y006587D01*
X004668Y006592D01*
X004663Y006587D01*
X004655Y006587D01*
X004603Y006535D01*
X004348Y006311D01*
X004080Y006311D01*
X004021Y006370D01*
X004061Y006467D01*
X004061Y006672D01*
X003983Y006861D01*
X003838Y007006D01*
X003684Y007070D01*
X003838Y007134D01*
X003983Y007278D01*
X003858Y007153D02*
X005956Y007153D01*
X005957Y007055D02*
X003721Y007055D01*
X003888Y006956D02*
X005957Y006956D01*
X005958Y006858D02*
X003985Y006858D01*
X004025Y006759D02*
X005958Y006759D01*
X005910Y006661D02*
X004061Y006661D01*
X004061Y006562D02*
X004630Y006562D01*
X004522Y006464D02*
X004060Y006464D01*
X004027Y006365D02*
X004409Y006365D01*
X004421Y006117D02*
X004736Y006393D01*
X005917Y006393D01*
X006153Y006629D01*
X006145Y008231D01*
X006350Y008436D01*
X006350Y008440D01*
X006101Y008532D02*
X004784Y008532D01*
X004686Y008434D02*
X006073Y008434D01*
X006064Y008425D02*
X006064Y008425D01*
X005974Y008335D02*
X004587Y008335D01*
X004489Y008237D02*
X005951Y008237D01*
X005951Y008138D02*
X004390Y008138D01*
X004292Y008040D02*
X005952Y008040D01*
X005952Y007941D02*
X004193Y007941D01*
X004095Y007843D02*
X005953Y007843D01*
X005953Y007744D02*
X004032Y007744D01*
X004061Y007646D02*
X005954Y007646D01*
X005954Y007547D02*
X004061Y007547D01*
X004054Y007449D02*
X005955Y007449D01*
X006421Y008113D02*
X006421Y006578D01*
X006027Y006184D01*
X004807Y006184D01*
X004531Y005908D01*
X003886Y005908D01*
X003547Y005570D01*
X003684Y005070D02*
X003834Y005132D01*
X003746Y005044D01*
X003684Y005070D01*
X003720Y005085D02*
X003787Y005085D01*
X003985Y005283D02*
X004416Y005714D01*
X004044Y005714D01*
X004061Y005672D01*
X004061Y005467D01*
X003985Y005283D01*
X004025Y005380D02*
X004082Y005380D01*
X004061Y005479D02*
X004181Y005479D01*
X004279Y005577D02*
X004061Y005577D01*
X004060Y005676D02*
X004378Y005676D01*
X004421Y006117D02*
X004000Y006117D01*
X003547Y006570D01*
X003746Y006095D02*
X003684Y006070D01*
X003746Y006044D01*
X003772Y006070D01*
X003746Y006095D01*
X003772Y006070D02*
X003684Y006070D01*
X004925Y005948D02*
X003547Y004570D01*
X004925Y005948D02*
X006106Y005948D01*
X007031Y006873D01*
X007031Y008428D01*
X007019Y008440D01*
X006697Y008467D02*
X006697Y008349D01*
X006686Y008084D02*
X006749Y008084D01*
X006837Y008120D01*
X006837Y006953D01*
X006615Y006732D01*
X006615Y007932D01*
X006646Y007963D01*
X006686Y008060D01*
X006686Y008084D01*
X006678Y008040D02*
X006837Y008040D01*
X006837Y007941D02*
X006625Y007941D01*
X006615Y007843D02*
X006837Y007843D01*
X006837Y007744D02*
X006615Y007744D01*
X006615Y007646D02*
X006837Y007646D01*
X006837Y007547D02*
X006615Y007547D01*
X006615Y007449D02*
X006837Y007449D01*
X006837Y007350D02*
X006615Y007350D01*
X006615Y007252D02*
X006837Y007252D01*
X006837Y007153D02*
X006615Y007153D01*
X006615Y007055D02*
X006837Y007055D01*
X006837Y006956D02*
X006615Y006956D01*
X006615Y006858D02*
X006741Y006858D01*
X006642Y006759D02*
X006615Y006759D01*
X006897Y006464D02*
X007065Y006464D01*
X007022Y006562D02*
X006996Y006562D01*
X006799Y006365D02*
X007201Y006365D01*
X007287Y006617D02*
X007031Y006873D01*
X007838Y006893D02*
X009019Y005711D01*
X007838Y006893D02*
X007838Y011538D01*
X007405Y011971D01*
X005515Y011971D01*
X005345Y012177D02*
X003885Y012177D01*
X003983Y012275D02*
X008321Y012275D01*
X008321Y012177D02*
X005686Y012177D01*
X005329Y011783D02*
X004014Y011783D01*
X004055Y011684D02*
X004971Y011684D01*
X004936Y011649D02*
X005011Y011724D01*
X005108Y011764D01*
X005214Y011764D01*
X005312Y011724D01*
X005386Y011649D01*
X005427Y011552D01*
X005427Y011446D01*
X005386Y011348D01*
X005356Y011318D01*
X005356Y010418D01*
X005242Y010304D01*
X005242Y010304D01*
X005184Y010246D01*
X005183Y010242D01*
X005127Y010190D01*
X005072Y010135D01*
X005068Y010135D01*
X004962Y010036D01*
X004962Y010001D01*
X004922Y009904D01*
X004847Y009829D01*
X004749Y009788D01*
X004644Y009788D01*
X004546Y009829D01*
X004471Y009904D01*
X004431Y010001D01*
X004431Y010107D01*
X004471Y010204D01*
X004546Y010279D01*
X004644Y010319D01*
X004696Y010319D01*
X004857Y010469D01*
X004967Y010579D01*
X004967Y011318D01*
X004936Y011348D01*
X004896Y011446D01*
X004896Y011552D01*
X004936Y011649D01*
X004910Y011586D02*
X004061Y011586D01*
X004061Y011487D02*
X004896Y011487D01*
X004919Y011389D02*
X004030Y011389D01*
X003990Y011290D02*
X004967Y011290D01*
X004967Y011192D02*
X003900Y011192D01*
X003750Y011093D02*
X004967Y011093D01*
X004967Y010995D02*
X003846Y010995D01*
X003944Y010896D02*
X004967Y010896D01*
X004967Y010798D02*
X004008Y010798D01*
X004049Y010699D02*
X004967Y010699D01*
X004967Y010601D02*
X004061Y010601D01*
X004061Y010502D02*
X004889Y010502D01*
X004786Y010404D02*
X004037Y010404D01*
X003996Y010305D02*
X004609Y010305D01*
X004474Y010207D02*
X003915Y010207D01*
X003787Y010108D02*
X004432Y010108D01*
X004431Y010010D02*
X003820Y010010D01*
X003929Y009911D02*
X004468Y009911D01*
X004585Y009813D02*
X004002Y009813D01*
X004042Y009714D02*
X007644Y009714D01*
X007644Y009616D02*
X004061Y009616D01*
X004061Y009517D02*
X007644Y009517D01*
X007644Y009419D02*
X004043Y009419D01*
X004002Y009320D02*
X007644Y009320D01*
X007644Y009222D02*
X003930Y009222D01*
X003823Y009123D02*
X007644Y009123D01*
X007644Y009025D02*
X003783Y009025D01*
X003914Y008926D02*
X004628Y008926D01*
X004530Y008828D02*
X003995Y008828D01*
X004036Y008729D02*
X004431Y008729D01*
X004333Y008631D02*
X004061Y008631D01*
X004061Y008532D02*
X004234Y008532D01*
X004136Y008434D02*
X004049Y008434D01*
X004037Y008335D02*
X004008Y008335D01*
X003827Y008125D02*
X003746Y008044D01*
X003689Y008068D01*
X003827Y008125D01*
X004808Y009813D02*
X007644Y009813D01*
X007644Y009911D02*
X004925Y009911D01*
X004962Y010010D02*
X007644Y010010D01*
X007644Y010108D02*
X005040Y010108D01*
X005145Y010207D02*
X007644Y010207D01*
X007644Y010305D02*
X005242Y010305D01*
X005341Y010404D02*
X007644Y010404D01*
X007644Y010502D02*
X005356Y010502D01*
X005356Y010601D02*
X007644Y010601D01*
X007644Y010699D02*
X005356Y010699D01*
X005356Y010798D02*
X007644Y010798D01*
X007644Y010896D02*
X005356Y010896D01*
X005356Y010995D02*
X007644Y010995D01*
X007644Y011093D02*
X005356Y011093D01*
X005356Y011192D02*
X007644Y011192D01*
X007644Y011290D02*
X005356Y011290D01*
X005403Y011389D02*
X007644Y011389D01*
X007614Y011487D02*
X005427Y011487D01*
X005413Y011586D02*
X007516Y011586D01*
X007417Y011684D02*
X005351Y011684D01*
X005265Y011881D02*
X003959Y011881D01*
X003861Y011980D02*
X005250Y011980D01*
X005272Y012078D02*
X003714Y012078D01*
X004024Y012374D02*
X008321Y012374D01*
X008515Y012515D02*
X008515Y009341D01*
X008311Y009137D01*
X008119Y009320D02*
X008033Y009320D01*
X008033Y009222D02*
X008059Y009222D01*
X008045Y009123D02*
X008033Y009123D01*
X008033Y009025D02*
X008070Y009025D01*
X008033Y008926D02*
X008146Y008926D01*
X007644Y008926D02*
X006513Y008926D01*
X006611Y008828D02*
X007644Y008828D01*
X008033Y009419D02*
X008318Y009419D01*
X008321Y009517D02*
X008033Y009517D01*
X008033Y009616D02*
X008321Y009616D01*
X008321Y009714D02*
X008033Y009714D01*
X008033Y009813D02*
X008321Y009813D01*
X008321Y009911D02*
X008033Y009911D01*
X008033Y010010D02*
X008321Y010010D01*
X008321Y010108D02*
X008033Y010108D01*
X008033Y010207D02*
X008321Y010207D01*
X008321Y010305D02*
X008033Y010305D01*
X008033Y010404D02*
X008321Y010404D01*
X008321Y010502D02*
X008033Y010502D01*
X008033Y010601D02*
X008321Y010601D01*
X008321Y010699D02*
X008033Y010699D01*
X008033Y010798D02*
X008321Y010798D01*
X008321Y010896D02*
X008033Y010896D01*
X008033Y010995D02*
X008321Y010995D01*
X008321Y011093D02*
X008033Y011093D01*
X008033Y011192D02*
X008321Y011192D01*
X008321Y011290D02*
X008033Y011290D01*
X008033Y011389D02*
X008321Y011389D01*
X008321Y011487D02*
X008033Y011487D01*
X008033Y011586D02*
X008321Y011586D01*
X008321Y011684D02*
X007967Y011684D01*
X007869Y011783D02*
X008321Y011783D01*
X008321Y011881D02*
X007770Y011881D01*
X007672Y011980D02*
X008321Y011980D01*
X008321Y012078D02*
X007573Y012078D01*
X008452Y012578D02*
X003559Y012578D01*
X003547Y012566D01*
X005161Y011499D02*
X005161Y010499D01*
X004992Y010330D01*
X004697Y010054D01*
X008452Y012578D02*
X008515Y012515D01*
X010672Y012062D02*
X010827Y012126D01*
X010971Y012270D01*
X011019Y012386D01*
X011019Y011738D01*
X010971Y011853D01*
X010827Y011998D01*
X010672Y012062D01*
X010712Y012078D02*
X011019Y012078D01*
X011019Y011980D02*
X010845Y011980D01*
X010943Y011881D02*
X011019Y011881D01*
X011019Y011783D02*
X011001Y011783D01*
X011019Y011386D02*
X011019Y010738D01*
X010971Y010853D01*
X010827Y010998D01*
X010672Y011062D01*
X010827Y011126D01*
X010971Y011270D01*
X011019Y011386D01*
X011019Y011290D02*
X010979Y011290D01*
X011019Y011192D02*
X010893Y011192D01*
X011019Y011093D02*
X010748Y011093D01*
X010830Y010995D02*
X011019Y010995D01*
X011019Y010896D02*
X010928Y010896D01*
X010994Y010798D02*
X011019Y010798D01*
X011019Y010386D02*
X011019Y009738D01*
X010971Y009853D01*
X010827Y009998D01*
X010672Y010062D01*
X010827Y010126D01*
X010971Y010270D01*
X011019Y010386D01*
X011019Y010305D02*
X010986Y010305D01*
X011019Y010207D02*
X010908Y010207D01*
X011019Y010108D02*
X010784Y010108D01*
X010798Y010010D02*
X011019Y010010D01*
X011019Y009911D02*
X010913Y009911D01*
X010988Y009813D02*
X011019Y009813D01*
X011019Y009386D02*
X011019Y008738D01*
X010971Y008853D01*
X010827Y008998D01*
X010672Y009062D01*
X010827Y009126D01*
X010971Y009270D01*
X011019Y009386D01*
X011019Y009320D02*
X010992Y009320D01*
X011019Y009222D02*
X010923Y009222D01*
X011019Y009123D02*
X010821Y009123D01*
X010762Y009025D02*
X011019Y009025D01*
X011019Y008926D02*
X010898Y008926D01*
X010982Y008828D02*
X011019Y008828D01*
X011019Y008386D02*
X011019Y007738D01*
X010971Y007853D01*
X010827Y007998D01*
X010672Y008062D01*
X010827Y008126D01*
X010971Y008270D01*
X011019Y008386D01*
X011019Y008335D02*
X010998Y008335D01*
X011019Y008237D02*
X010938Y008237D01*
X011019Y008138D02*
X010839Y008138D01*
X010726Y008040D02*
X011019Y008040D01*
X011019Y007941D02*
X010883Y007941D01*
X010976Y007843D02*
X011019Y007843D01*
X011016Y007744D02*
X011019Y007744D01*
X011019Y007386D02*
X011019Y006738D01*
X010971Y006853D01*
X010827Y006998D01*
X010672Y007062D01*
X010827Y007126D01*
X010971Y007270D01*
X011019Y007386D01*
X011019Y007350D02*
X011004Y007350D01*
X011019Y007252D02*
X010953Y007252D01*
X011019Y007153D02*
X010854Y007153D01*
X010690Y007055D02*
X011019Y007055D01*
X011019Y006956D02*
X010868Y006956D01*
X010967Y006858D02*
X011019Y006858D01*
X011010Y006759D02*
X011019Y006759D01*
X011019Y006386D02*
X011019Y005738D01*
X010971Y005853D01*
X010827Y005998D01*
X010672Y006062D01*
X010827Y006126D01*
X010971Y006270D01*
X011019Y006386D01*
X011019Y006365D02*
X011011Y006365D01*
X011019Y006267D02*
X010968Y006267D01*
X011019Y006168D02*
X010869Y006168D01*
X011019Y006070D02*
X010691Y006070D01*
X010853Y005971D02*
X011019Y005971D01*
X011019Y005873D02*
X010952Y005873D01*
X011004Y005774D02*
X011019Y005774D01*
X011019Y005386D02*
X011019Y004738D01*
X010971Y004853D01*
X010827Y004998D01*
X010672Y005062D01*
X010827Y005126D01*
X010971Y005270D01*
X011019Y005386D01*
X011017Y005380D02*
X011019Y005380D01*
X011019Y005282D02*
X010976Y005282D01*
X011019Y005183D02*
X010884Y005183D01*
X011019Y005085D02*
X010728Y005085D01*
X010838Y004986D02*
X011019Y004986D01*
X011019Y004888D02*
X010937Y004888D01*
X010998Y004789D02*
X011019Y004789D01*
X011019Y004386D02*
X011019Y003738D01*
X010971Y003853D01*
X010827Y003998D01*
X010672Y004062D01*
X010827Y004126D01*
X010971Y004270D01*
X011019Y004386D01*
X011019Y004297D02*
X010982Y004297D01*
X011019Y004198D02*
X010899Y004198D01*
X011019Y004100D02*
X010764Y004100D01*
X010819Y004001D02*
X011019Y004001D01*
X011019Y003903D02*
X010922Y003903D01*
X010992Y003804D02*
X011019Y003804D01*
X011019Y003386D02*
X011019Y002738D01*
X010971Y002853D01*
X010827Y002998D01*
X010672Y003062D01*
X010827Y003126D01*
X010971Y003270D01*
X011019Y003386D01*
X011019Y003312D02*
X010988Y003312D01*
X011019Y003213D02*
X010914Y003213D01*
X011019Y003115D02*
X010800Y003115D01*
X010783Y003016D02*
X011019Y003016D01*
X011019Y002918D02*
X010907Y002918D01*
X010985Y002819D02*
X011019Y002819D01*
X011019Y002386D02*
X011019Y001738D01*
X010971Y001853D01*
X010827Y001998D01*
X010672Y002062D01*
X010827Y002126D01*
X010971Y002270D01*
X011019Y002386D01*
X011019Y002327D02*
X010995Y002327D01*
X011019Y002228D02*
X010929Y002228D01*
X011019Y002130D02*
X010831Y002130D01*
X010746Y002031D02*
X011019Y002031D01*
X011019Y001933D02*
X010892Y001933D01*
X010979Y001834D02*
X011019Y001834D01*
X011019Y001386D02*
X011019Y001098D01*
X010759Y001098D01*
X010827Y001126D01*
X010971Y001270D01*
X011019Y001386D01*
X011019Y001342D02*
X011001Y001342D01*
X011019Y001243D02*
X010944Y001243D01*
X011019Y001145D02*
X010846Y001145D01*
X007090Y004555D02*
X007090Y005436D01*
X006869Y005282D02*
X005636Y005282D01*
X005538Y005183D02*
X006896Y005183D01*
X006896Y005085D02*
X005439Y005085D01*
X005356Y004986D02*
X006896Y004986D01*
X006674Y004888D02*
X005356Y004888D01*
X005356Y004789D02*
X006631Y004789D01*
X006631Y004691D02*
X005376Y004691D01*
X005423Y004592D02*
X006631Y004592D01*
X006631Y004494D02*
X005427Y004494D01*
X005393Y004395D02*
X006631Y004395D01*
X006631Y004297D02*
X005291Y004297D01*
X005161Y004530D02*
X005161Y005081D01*
X005830Y005751D01*
X010878Y012177D02*
X011019Y012177D01*
X011019Y012275D02*
X010973Y012275D01*
X011014Y012374D02*
X011019Y012374D01*
X011019Y012738D02*
X010971Y012853D01*
X010827Y012998D01*
X010651Y013071D01*
X011019Y013071D01*
X011019Y012738D01*
X011019Y012768D02*
X011007Y012768D01*
X011019Y012866D02*
X010958Y012866D01*
X011019Y012965D02*
X010860Y012965D01*
X011019Y013063D02*
X010669Y013063D01*
D13*
X008311Y009137D03*
X007019Y008440D03*
X006697Y008349D03*
X006421Y008113D03*
X006350Y008440D03*
X005476Y008310D03*
X005634Y006814D03*
X006657Y006066D03*
X007090Y005436D03*
X008035Y006144D03*
X008437Y005763D03*
X008941Y006263D03*
X007287Y006617D03*
X005161Y004530D03*
X007760Y003585D03*
X008941Y002956D03*
X009295Y003074D03*
X004697Y010054D03*
X005161Y011499D03*
X005515Y011971D03*
X005803Y012278D03*
M02*
