G75*
%MOIN*%
%OFA0B0*%
%FSLAX24Y24*%
%IPPOS*%
%LPD*%
%AMOC8*
5,1,8,0,0,1.08239X$1,22.5*
%
%ADD10C,0.0049*%
%ADD11R,0.1614X0.1614*%
%ADD12R,0.0276X0.0354*%
%ADD13R,0.0315X0.0315*%
%ADD14R,0.0354X0.0276*%
%ADD15R,0.0118X0.0472*%
%ADD16R,0.0472X0.0433*%
%ADD17R,0.0866X0.0236*%
%ADD18C,0.0740*%
%ADD19C,0.0100*%
%ADD20C,0.0242*%
D10*
X005529Y008818D02*
X005529Y009164D01*
X005529Y008818D02*
X005479Y008818D01*
X005479Y009164D01*
X005529Y009164D01*
X005529Y008866D02*
X005479Y008866D01*
X005479Y008914D02*
X005529Y008914D01*
X005529Y008962D02*
X005479Y008962D01*
X005479Y009010D02*
X005529Y009010D01*
X005529Y009058D02*
X005479Y009058D01*
X005479Y009106D02*
X005529Y009106D01*
X005529Y009154D02*
X005479Y009154D01*
X005725Y009164D02*
X005725Y008818D01*
X005675Y008818D01*
X005675Y009164D01*
X005725Y009164D01*
X005725Y008866D02*
X005675Y008866D01*
X005675Y008914D02*
X005725Y008914D01*
X005725Y008962D02*
X005675Y008962D01*
X005675Y009010D02*
X005725Y009010D01*
X005725Y009058D02*
X005675Y009058D01*
X005675Y009106D02*
X005725Y009106D01*
X005725Y009154D02*
X005675Y009154D01*
X005922Y009164D02*
X005922Y008818D01*
X005872Y008818D01*
X005872Y009164D01*
X005922Y009164D01*
X005922Y008866D02*
X005872Y008866D01*
X005872Y008914D02*
X005922Y008914D01*
X005922Y008962D02*
X005872Y008962D01*
X005872Y009010D02*
X005922Y009010D01*
X005922Y009058D02*
X005872Y009058D01*
X005872Y009106D02*
X005922Y009106D01*
X005922Y009154D02*
X005872Y009154D01*
X006119Y009164D02*
X006119Y008818D01*
X006069Y008818D01*
X006069Y009164D01*
X006119Y009164D01*
X006119Y008866D02*
X006069Y008866D01*
X006069Y008914D02*
X006119Y008914D01*
X006119Y008962D02*
X006069Y008962D01*
X006069Y009010D02*
X006119Y009010D01*
X006119Y009058D02*
X006069Y009058D01*
X006069Y009106D02*
X006119Y009106D01*
X006119Y009154D02*
X006069Y009154D01*
X006316Y009164D02*
X006316Y008818D01*
X006266Y008818D01*
X006266Y009164D01*
X006316Y009164D01*
X006316Y008866D02*
X006266Y008866D01*
X006266Y008914D02*
X006316Y008914D01*
X006316Y008962D02*
X006266Y008962D01*
X006266Y009010D02*
X006316Y009010D01*
X006316Y009058D02*
X006266Y009058D01*
X006266Y009106D02*
X006316Y009106D01*
X006316Y009154D02*
X006266Y009154D01*
X006513Y009164D02*
X006513Y008818D01*
X006463Y008818D01*
X006463Y009164D01*
X006513Y009164D01*
X006513Y008866D02*
X006463Y008866D01*
X006463Y008914D02*
X006513Y008914D01*
X006513Y008962D02*
X006463Y008962D01*
X006463Y009010D02*
X006513Y009010D01*
X006513Y009058D02*
X006463Y009058D01*
X006463Y009106D02*
X006513Y009106D01*
X006513Y009154D02*
X006463Y009154D01*
X006710Y009164D02*
X006710Y008818D01*
X006660Y008818D01*
X006660Y009164D01*
X006710Y009164D01*
X006710Y008866D02*
X006660Y008866D01*
X006660Y008914D02*
X006710Y008914D01*
X006710Y008962D02*
X006660Y008962D01*
X006660Y009010D02*
X006710Y009010D01*
X006710Y009058D02*
X006660Y009058D01*
X006660Y009106D02*
X006710Y009106D01*
X006710Y009154D02*
X006660Y009154D01*
X006907Y009164D02*
X006907Y008818D01*
X006857Y008818D01*
X006857Y009164D01*
X006907Y009164D01*
X006907Y008866D02*
X006857Y008866D01*
X006857Y008914D02*
X006907Y008914D01*
X006907Y008962D02*
X006857Y008962D01*
X006857Y009010D02*
X006907Y009010D01*
X006907Y009058D02*
X006857Y009058D01*
X006857Y009106D02*
X006907Y009106D01*
X006907Y009154D02*
X006857Y009154D01*
X007103Y009164D02*
X007103Y008818D01*
X007053Y008818D01*
X007053Y009164D01*
X007103Y009164D01*
X007103Y008866D02*
X007053Y008866D01*
X007053Y008914D02*
X007103Y008914D01*
X007103Y008962D02*
X007053Y008962D01*
X007053Y009010D02*
X007103Y009010D01*
X007103Y009058D02*
X007053Y009058D01*
X007053Y009106D02*
X007103Y009106D01*
X007103Y009154D02*
X007053Y009154D01*
X007300Y009164D02*
X007300Y008818D01*
X007250Y008818D01*
X007250Y009164D01*
X007300Y009164D01*
X007300Y008866D02*
X007250Y008866D01*
X007250Y008914D02*
X007300Y008914D01*
X007300Y008962D02*
X007250Y008962D01*
X007250Y009010D02*
X007300Y009010D01*
X007300Y009058D02*
X007250Y009058D01*
X007250Y009106D02*
X007300Y009106D01*
X007300Y009154D02*
X007250Y009154D01*
X007437Y009351D02*
X007783Y009351D01*
X007783Y009301D01*
X007437Y009301D01*
X007437Y009351D01*
X007437Y009349D02*
X007783Y009349D01*
X007783Y009547D02*
X007437Y009547D01*
X007783Y009547D02*
X007783Y009497D01*
X007437Y009497D01*
X007437Y009547D01*
X007437Y009545D02*
X007783Y009545D01*
X007783Y009744D02*
X007437Y009744D01*
X007783Y009744D02*
X007783Y009694D01*
X007437Y009694D01*
X007437Y009744D01*
X007437Y009742D02*
X007783Y009742D01*
X007783Y009941D02*
X007437Y009941D01*
X007783Y009941D02*
X007783Y009891D01*
X007437Y009891D01*
X007437Y009941D01*
X007437Y009939D02*
X007783Y009939D01*
X007783Y010138D02*
X007437Y010138D01*
X007783Y010138D02*
X007783Y010088D01*
X007437Y010088D01*
X007437Y010138D01*
X007437Y010136D02*
X007783Y010136D01*
X007783Y010335D02*
X007437Y010335D01*
X007783Y010335D02*
X007783Y010285D01*
X007437Y010285D01*
X007437Y010335D01*
X007437Y010333D02*
X007783Y010333D01*
X007783Y010532D02*
X007437Y010532D01*
X007783Y010532D02*
X007783Y010482D01*
X007437Y010482D01*
X007437Y010532D01*
X007437Y010530D02*
X007783Y010530D01*
X007783Y010729D02*
X007437Y010729D01*
X007783Y010729D02*
X007783Y010679D01*
X007437Y010679D01*
X007437Y010729D01*
X007437Y010727D02*
X007783Y010727D01*
X007783Y010925D02*
X007437Y010925D01*
X007783Y010925D02*
X007783Y010875D01*
X007437Y010875D01*
X007437Y010925D01*
X007437Y010923D02*
X007783Y010923D01*
X007783Y011122D02*
X007437Y011122D01*
X007783Y011122D02*
X007783Y011072D01*
X007437Y011072D01*
X007437Y011122D01*
X007437Y011120D02*
X007783Y011120D01*
X007250Y011259D02*
X007250Y011605D01*
X007300Y011605D01*
X007300Y011259D01*
X007250Y011259D01*
X007250Y011307D02*
X007300Y011307D01*
X007300Y011355D02*
X007250Y011355D01*
X007250Y011403D02*
X007300Y011403D01*
X007300Y011451D02*
X007250Y011451D01*
X007250Y011499D02*
X007300Y011499D01*
X007300Y011547D02*
X007250Y011547D01*
X007250Y011595D02*
X007300Y011595D01*
X007053Y011605D02*
X007053Y011259D01*
X007053Y011605D02*
X007103Y011605D01*
X007103Y011259D01*
X007053Y011259D01*
X007053Y011307D02*
X007103Y011307D01*
X007103Y011355D02*
X007053Y011355D01*
X007053Y011403D02*
X007103Y011403D01*
X007103Y011451D02*
X007053Y011451D01*
X007053Y011499D02*
X007103Y011499D01*
X007103Y011547D02*
X007053Y011547D01*
X007053Y011595D02*
X007103Y011595D01*
X006857Y011605D02*
X006857Y011259D01*
X006857Y011605D02*
X006907Y011605D01*
X006907Y011259D01*
X006857Y011259D01*
X006857Y011307D02*
X006907Y011307D01*
X006907Y011355D02*
X006857Y011355D01*
X006857Y011403D02*
X006907Y011403D01*
X006907Y011451D02*
X006857Y011451D01*
X006857Y011499D02*
X006907Y011499D01*
X006907Y011547D02*
X006857Y011547D01*
X006857Y011595D02*
X006907Y011595D01*
X006660Y011605D02*
X006660Y011259D01*
X006660Y011605D02*
X006710Y011605D01*
X006710Y011259D01*
X006660Y011259D01*
X006660Y011307D02*
X006710Y011307D01*
X006710Y011355D02*
X006660Y011355D01*
X006660Y011403D02*
X006710Y011403D01*
X006710Y011451D02*
X006660Y011451D01*
X006660Y011499D02*
X006710Y011499D01*
X006710Y011547D02*
X006660Y011547D01*
X006660Y011595D02*
X006710Y011595D01*
X006463Y011605D02*
X006463Y011259D01*
X006463Y011605D02*
X006513Y011605D01*
X006513Y011259D01*
X006463Y011259D01*
X006463Y011307D02*
X006513Y011307D01*
X006513Y011355D02*
X006463Y011355D01*
X006463Y011403D02*
X006513Y011403D01*
X006513Y011451D02*
X006463Y011451D01*
X006463Y011499D02*
X006513Y011499D01*
X006513Y011547D02*
X006463Y011547D01*
X006463Y011595D02*
X006513Y011595D01*
X006266Y011605D02*
X006266Y011259D01*
X006266Y011605D02*
X006316Y011605D01*
X006316Y011259D01*
X006266Y011259D01*
X006266Y011307D02*
X006316Y011307D01*
X006316Y011355D02*
X006266Y011355D01*
X006266Y011403D02*
X006316Y011403D01*
X006316Y011451D02*
X006266Y011451D01*
X006266Y011499D02*
X006316Y011499D01*
X006316Y011547D02*
X006266Y011547D01*
X006266Y011595D02*
X006316Y011595D01*
X006069Y011605D02*
X006069Y011259D01*
X006069Y011605D02*
X006119Y011605D01*
X006119Y011259D01*
X006069Y011259D01*
X006069Y011307D02*
X006119Y011307D01*
X006119Y011355D02*
X006069Y011355D01*
X006069Y011403D02*
X006119Y011403D01*
X006119Y011451D02*
X006069Y011451D01*
X006069Y011499D02*
X006119Y011499D01*
X006119Y011547D02*
X006069Y011547D01*
X006069Y011595D02*
X006119Y011595D01*
X005872Y011605D02*
X005872Y011259D01*
X005872Y011605D02*
X005922Y011605D01*
X005922Y011259D01*
X005872Y011259D01*
X005872Y011307D02*
X005922Y011307D01*
X005922Y011355D02*
X005872Y011355D01*
X005872Y011403D02*
X005922Y011403D01*
X005922Y011451D02*
X005872Y011451D01*
X005872Y011499D02*
X005922Y011499D01*
X005922Y011547D02*
X005872Y011547D01*
X005872Y011595D02*
X005922Y011595D01*
X005675Y011605D02*
X005675Y011259D01*
X005675Y011605D02*
X005725Y011605D01*
X005725Y011259D01*
X005675Y011259D01*
X005675Y011307D02*
X005725Y011307D01*
X005725Y011355D02*
X005675Y011355D01*
X005675Y011403D02*
X005725Y011403D01*
X005725Y011451D02*
X005675Y011451D01*
X005675Y011499D02*
X005725Y011499D01*
X005725Y011547D02*
X005675Y011547D01*
X005675Y011595D02*
X005725Y011595D01*
X005479Y011605D02*
X005479Y011259D01*
X005479Y011605D02*
X005529Y011605D01*
X005529Y011259D01*
X005479Y011259D01*
X005479Y011307D02*
X005529Y011307D01*
X005529Y011355D02*
X005479Y011355D01*
X005479Y011403D02*
X005529Y011403D01*
X005529Y011451D02*
X005479Y011451D01*
X005479Y011499D02*
X005529Y011499D01*
X005529Y011547D02*
X005479Y011547D01*
X005479Y011595D02*
X005529Y011595D01*
X005342Y011072D02*
X004996Y011072D01*
X004996Y011122D01*
X005342Y011122D01*
X005342Y011072D01*
X005342Y011120D02*
X004996Y011120D01*
X004996Y010875D02*
X005342Y010875D01*
X004996Y010875D02*
X004996Y010925D01*
X005342Y010925D01*
X005342Y010875D01*
X005342Y010923D02*
X004996Y010923D01*
X004996Y010679D02*
X005342Y010679D01*
X004996Y010679D02*
X004996Y010729D01*
X005342Y010729D01*
X005342Y010679D01*
X005342Y010727D02*
X004996Y010727D01*
X004996Y010482D02*
X005342Y010482D01*
X004996Y010482D02*
X004996Y010532D01*
X005342Y010532D01*
X005342Y010482D01*
X005342Y010530D02*
X004996Y010530D01*
X004996Y010285D02*
X005342Y010285D01*
X004996Y010285D02*
X004996Y010335D01*
X005342Y010335D01*
X005342Y010285D01*
X005342Y010333D02*
X004996Y010333D01*
X004996Y010088D02*
X005342Y010088D01*
X004996Y010088D02*
X004996Y010138D01*
X005342Y010138D01*
X005342Y010088D01*
X005342Y010136D02*
X004996Y010136D01*
X004996Y009891D02*
X005342Y009891D01*
X004996Y009891D02*
X004996Y009941D01*
X005342Y009941D01*
X005342Y009891D01*
X005342Y009939D02*
X004996Y009939D01*
X004996Y009694D02*
X005342Y009694D01*
X004996Y009694D02*
X004996Y009744D01*
X005342Y009744D01*
X005342Y009694D01*
X005342Y009742D02*
X004996Y009742D01*
X004996Y009497D02*
X005342Y009497D01*
X004996Y009497D02*
X004996Y009547D01*
X005342Y009547D01*
X005342Y009497D01*
X005342Y009545D02*
X004996Y009545D01*
X004996Y009301D02*
X005342Y009301D01*
X004996Y009301D02*
X004996Y009351D01*
X005342Y009351D01*
X005342Y009301D01*
X005342Y009349D02*
X004996Y009349D01*
D11*
X006389Y010211D03*
D12*
X004826Y011853D03*
X004826Y012326D03*
X004315Y012326D03*
X004315Y011853D03*
X007846Y007707D03*
X007846Y007200D03*
X008358Y007200D03*
X008358Y007707D03*
X007543Y004530D03*
X007031Y004530D03*
X006204Y004530D03*
X006204Y004058D03*
X006323Y003585D03*
X005811Y003585D03*
X005693Y004058D03*
X005693Y004530D03*
X004866Y005081D03*
X004354Y005081D03*
X004354Y002995D03*
X004866Y002995D03*
X004866Y002011D03*
X004354Y002011D03*
D13*
X006795Y003585D03*
X007386Y003585D03*
X005279Y005062D03*
X005279Y005652D03*
D14*
X005200Y006282D03*
X005200Y006794D03*
X006500Y007227D03*
X006941Y007475D03*
X006500Y007739D03*
X006941Y007987D03*
X007413Y007672D03*
X007413Y007160D03*
X007413Y006255D03*
X007413Y005743D03*
X005358Y003644D03*
X005358Y003133D03*
X005358Y002306D03*
X005358Y001794D03*
X008941Y001833D03*
X008941Y002345D03*
X009610Y002345D03*
X009610Y001833D03*
X008303Y008211D03*
X008303Y008723D03*
X004452Y008881D03*
X004452Y009393D03*
D15*
X005958Y006740D03*
X006214Y006740D03*
X006470Y006740D03*
X006726Y006740D03*
X007966Y006700D03*
X008222Y006700D03*
X008478Y006700D03*
X008734Y006700D03*
X008734Y005037D03*
X008478Y005037D03*
X008222Y005037D03*
X007966Y005037D03*
X006726Y005076D03*
X006470Y005076D03*
X006214Y005076D03*
X005958Y005076D03*
D16*
X005929Y007286D03*
X005929Y007837D03*
X005260Y007837D03*
X005260Y007286D03*
D17*
X006106Y002800D03*
X006106Y002300D03*
X006106Y001800D03*
X006106Y001300D03*
X008153Y001300D03*
X008153Y001800D03*
X008153Y002300D03*
X008153Y002800D03*
D18*
X010535Y002562D03*
X010535Y003562D03*
X010535Y004562D03*
X010535Y005562D03*
X010535Y006562D03*
X010535Y007562D03*
X010535Y008562D03*
X010535Y009562D03*
X010535Y010562D03*
X010535Y011562D03*
X010535Y012562D03*
X003547Y012566D03*
X003547Y011566D03*
X003547Y010566D03*
X003547Y009566D03*
X003547Y008566D03*
X003547Y007570D03*
X003547Y006570D03*
X003547Y005570D03*
X003547Y004570D03*
X003547Y003566D03*
X003547Y002566D03*
X003547Y001566D03*
X010535Y001562D03*
D19*
X003313Y001101D02*
X003067Y001102D01*
X003067Y001362D01*
X003102Y001293D01*
X003150Y001227D01*
X003208Y001169D01*
X003274Y001121D01*
X003313Y001101D01*
X003242Y001145D02*
X003067Y001145D01*
X003067Y001243D02*
X003139Y001243D01*
X003078Y001342D02*
X003067Y001342D01*
X003067Y001769D02*
X003067Y002380D01*
X003111Y002274D01*
X003255Y002130D01*
X003067Y002130D01*
X003067Y002228D02*
X003157Y002228D01*
X003089Y002327D02*
X003067Y002327D01*
X003255Y002130D02*
X003407Y002067D01*
X003347Y002048D01*
X003274Y002010D01*
X003208Y001962D01*
X003150Y001905D01*
X003102Y001838D01*
X003067Y001769D01*
X003067Y001834D02*
X003100Y001834D01*
X003067Y001933D02*
X003178Y001933D01*
X003067Y002031D02*
X003315Y002031D01*
X003687Y002067D02*
X003743Y002090D01*
X003833Y002001D01*
X003819Y002010D01*
X003747Y002048D01*
X003687Y002067D01*
X003779Y002031D02*
X003803Y002031D01*
X003982Y001852D02*
X004018Y001816D01*
X004072Y001816D01*
X004072Y001774D01*
X004156Y001689D01*
X004552Y001689D01*
X004607Y001744D01*
X004608Y001741D01*
X004636Y001713D01*
X004670Y001694D01*
X004708Y001683D01*
X004847Y001683D01*
X004847Y001992D01*
X004885Y001992D01*
X004885Y001683D01*
X005023Y001683D01*
X005031Y001685D01*
X005031Y001637D01*
X004062Y001637D01*
X004065Y001616D02*
X004054Y001688D01*
X004029Y001765D01*
X003992Y001838D01*
X003982Y001852D01*
X003994Y001834D02*
X004000Y001834D01*
X004038Y001736D02*
X004110Y001736D01*
X004065Y001616D02*
X003597Y001616D01*
X003597Y001516D01*
X004065Y001516D01*
X004054Y001444D01*
X004029Y001366D01*
X003992Y001293D01*
X003944Y001227D01*
X003886Y001169D01*
X003819Y001121D01*
X003781Y001101D01*
X005547Y001100D01*
X005533Y001124D01*
X005523Y001162D01*
X005523Y001291D01*
X006097Y001291D01*
X006097Y001309D01*
X005523Y001309D01*
X005523Y001438D01*
X005533Y001476D01*
X005551Y001506D01*
X005377Y001506D01*
X005377Y001775D01*
X005339Y001775D01*
X005339Y001506D01*
X005161Y001506D01*
X005123Y001517D01*
X005089Y001536D01*
X005061Y001564D01*
X005041Y001598D01*
X005031Y001637D01*
X005086Y001539D02*
X003597Y001539D01*
X003955Y001243D02*
X005523Y001243D01*
X005528Y001145D02*
X003852Y001145D01*
X004016Y001342D02*
X005523Y001342D01*
X005524Y001440D02*
X004053Y001440D01*
X004098Y002011D02*
X003547Y002562D01*
X003547Y002566D01*
X003923Y002918D02*
X004072Y002918D01*
X004072Y003016D02*
X003804Y003016D01*
X003838Y003002D02*
X003684Y003066D01*
X003838Y003130D01*
X003983Y003274D01*
X004023Y003371D01*
X004160Y003371D01*
X004160Y003317D01*
X004156Y003317D01*
X004072Y003232D01*
X004072Y002758D01*
X004156Y002673D01*
X004552Y002673D01*
X004607Y002728D01*
X004608Y002726D01*
X004636Y002698D01*
X004670Y002678D01*
X004708Y002668D01*
X004847Y002668D01*
X004847Y002976D01*
X004885Y002976D01*
X004885Y002668D01*
X005023Y002668D01*
X005062Y002678D01*
X005096Y002698D01*
X005124Y002726D01*
X005143Y002760D01*
X005154Y002798D01*
X005154Y002850D01*
X005163Y002850D01*
X005163Y002588D01*
X005121Y002588D01*
X005036Y002504D01*
X005036Y002334D01*
X005023Y002338D01*
X004885Y002338D01*
X004885Y002030D01*
X004847Y002030D01*
X004847Y002338D01*
X004708Y002338D01*
X004670Y002328D01*
X004636Y002308D01*
X004608Y002280D01*
X004607Y002277D01*
X004552Y002332D01*
X004156Y002332D01*
X004104Y002280D01*
X004020Y002364D01*
X004061Y002463D01*
X004061Y002668D01*
X003983Y002857D01*
X003838Y003002D01*
X003802Y003115D02*
X004072Y003115D01*
X004072Y003213D02*
X003922Y003213D01*
X003999Y003312D02*
X004151Y003312D01*
X004354Y003566D02*
X004354Y002995D01*
X004607Y003262D02*
X004552Y003317D01*
X004549Y003317D01*
X004549Y003485D01*
X004927Y003863D01*
X005054Y003863D01*
X005041Y003840D01*
X005031Y003802D01*
X005031Y003663D01*
X005339Y003663D01*
X005339Y003626D01*
X005031Y003626D01*
X005031Y003487D01*
X005041Y003449D01*
X005061Y003415D01*
X005089Y003387D01*
X005091Y003385D01*
X005036Y003330D01*
X005036Y003319D01*
X005023Y003322D01*
X004885Y003322D01*
X004885Y003014D01*
X004847Y003014D01*
X004847Y003322D01*
X004708Y003322D01*
X004670Y003312D01*
X004636Y003292D01*
X004608Y003264D01*
X004607Y003262D01*
X004557Y003312D02*
X004670Y003312D01*
X004549Y003410D02*
X005065Y003410D01*
X005031Y003509D02*
X004572Y003509D01*
X004670Y003607D02*
X005031Y003607D01*
X005031Y003706D02*
X004769Y003706D01*
X004867Y003804D02*
X005031Y003804D01*
X004846Y004058D02*
X005693Y004058D01*
X005752Y003979D01*
X005752Y003644D01*
X005811Y003585D01*
X006323Y003585D02*
X006795Y003585D01*
X007056Y003327D02*
X007092Y003363D01*
X007108Y003336D01*
X007117Y003327D01*
X007056Y003327D01*
X007414Y003557D02*
X007414Y003614D01*
X007693Y003614D01*
X007693Y003763D01*
X007683Y003801D01*
X007663Y003835D01*
X007635Y003863D01*
X007627Y003867D01*
X007737Y003977D01*
X007737Y004209D01*
X007741Y004209D01*
X007825Y004293D01*
X007825Y004336D01*
X007841Y004336D01*
X007841Y003430D01*
X007738Y003327D01*
X007654Y003327D01*
X007663Y003336D01*
X007683Y003370D01*
X007693Y003408D01*
X007693Y003557D01*
X007414Y003557D01*
X007414Y003607D02*
X007841Y003607D01*
X007841Y003509D02*
X007693Y003509D01*
X007693Y003410D02*
X007821Y003410D01*
X008035Y003349D02*
X008035Y004530D01*
X007917Y004530D01*
X007543Y004530D01*
X007543Y004058D01*
X006204Y004058D01*
X006204Y004530D01*
X006204Y005076D01*
X006214Y005076D01*
X006224Y005076D01*
X006214Y005076D02*
X006204Y005067D01*
X005958Y005076D02*
X005958Y005076D01*
X005749Y005076D01*
X005749Y004857D01*
X005711Y004857D01*
X005711Y004549D01*
X005674Y004549D01*
X005674Y004857D01*
X005581Y004857D01*
X005581Y005279D01*
X005503Y005357D01*
X005581Y005435D01*
X005581Y005870D01*
X005497Y005954D01*
X005062Y005954D01*
X004977Y005870D01*
X004977Y005839D01*
X004726Y005832D01*
X004726Y007092D01*
X004879Y007092D01*
X004879Y007010D01*
X004888Y007001D01*
X004879Y006992D01*
X004879Y006596D01*
X004934Y006542D01*
X004931Y006540D01*
X004903Y006512D01*
X004884Y006478D01*
X004873Y006440D01*
X004873Y006301D01*
X005182Y006301D01*
X005182Y006263D01*
X005219Y006263D01*
X005219Y005994D01*
X005397Y005994D01*
X005436Y006005D01*
X005470Y006024D01*
X005498Y006052D01*
X005517Y006087D01*
X005528Y006125D01*
X005528Y006263D01*
X005219Y006263D01*
X005219Y006301D01*
X005528Y006301D01*
X005528Y006440D01*
X005517Y006478D01*
X005498Y006512D01*
X005470Y006540D01*
X005467Y006542D01*
X005522Y006596D01*
X005522Y006925D01*
X005556Y006925D01*
X005590Y006960D01*
X005600Y006950D01*
X005635Y006930D01*
X005673Y006920D01*
X005749Y006920D01*
X005749Y006740D01*
X005958Y006740D01*
X005958Y006740D01*
X005958Y007126D01*
X005979Y007126D01*
X005979Y007236D01*
X005979Y007336D01*
X006173Y007336D01*
X006173Y007246D01*
X006481Y007246D01*
X006481Y007208D01*
X006315Y007208D01*
X006315Y007236D01*
X005979Y007236D01*
X005879Y007236D01*
X005879Y007126D01*
X005879Y007126D01*
X005958Y007126D01*
X005958Y006740D01*
X006214Y006740D01*
X006470Y006740D01*
X006726Y006740D01*
X006726Y006354D01*
X006746Y006354D01*
X006746Y005997D01*
X006738Y005989D01*
X006275Y005526D01*
X006275Y005457D01*
X006095Y005457D01*
X006085Y005447D01*
X006075Y005452D01*
X006037Y005463D01*
X005958Y005463D01*
X005958Y005076D01*
X005958Y005076D01*
X005749Y005076D01*
X005749Y005332D01*
X005759Y005370D01*
X005779Y005405D01*
X005807Y005433D01*
X005841Y005452D01*
X005879Y005463D01*
X005958Y005463D01*
X005958Y005076D01*
X005958Y005085D02*
X005958Y005085D01*
X005958Y005183D02*
X005958Y005183D01*
X005958Y005282D02*
X005958Y005282D01*
X005958Y005380D02*
X005958Y005380D01*
X005765Y005380D02*
X005526Y005380D01*
X005579Y005282D02*
X005749Y005282D01*
X005749Y005183D02*
X005581Y005183D01*
X005581Y005085D02*
X005749Y005085D01*
X005749Y004986D02*
X005581Y004986D01*
X005581Y004888D02*
X005749Y004888D01*
X005711Y004789D02*
X005674Y004789D01*
X005674Y004691D02*
X005711Y004691D01*
X005711Y004592D02*
X005674Y004592D01*
X005405Y004727D02*
X005414Y004760D01*
X005301Y004760D01*
X005312Y004755D01*
X005386Y004681D01*
X005405Y004636D01*
X005405Y004727D01*
X005405Y004691D02*
X005376Y004691D01*
X005405Y004425D02*
X005405Y004333D01*
X005414Y004299D01*
X005410Y004295D01*
X005410Y004252D01*
X004766Y004252D01*
X004652Y004138D01*
X004273Y003760D01*
X004023Y003760D01*
X003983Y003857D01*
X003838Y004002D01*
X003679Y004068D01*
X003838Y004134D01*
X003983Y004278D01*
X004061Y004467D01*
X004061Y004672D01*
X003983Y004861D01*
X003838Y005006D01*
X003684Y005070D01*
X003838Y005134D01*
X003983Y005278D01*
X004061Y005467D01*
X004061Y005672D01*
X003983Y005861D01*
X003838Y006006D01*
X003684Y006070D01*
X003838Y006134D01*
X003983Y006278D01*
X004061Y006467D01*
X004061Y006672D01*
X003983Y006861D01*
X003838Y007006D01*
X003684Y007070D01*
X003838Y007134D01*
X003983Y007278D01*
X004061Y007467D01*
X004061Y007672D01*
X003983Y007861D01*
X003838Y008006D01*
X003689Y008068D01*
X003838Y008130D01*
X003983Y008274D01*
X004020Y008363D01*
X004068Y008363D01*
X004182Y008477D01*
X004300Y008595D01*
X004300Y008598D01*
X004427Y008598D01*
X004254Y008426D01*
X004140Y008312D01*
X004140Y005387D01*
X004072Y005319D01*
X004072Y004844D01*
X004156Y004760D01*
X004160Y004760D01*
X004160Y004745D01*
X004455Y004450D01*
X004569Y004336D01*
X004980Y004336D01*
X005011Y004305D01*
X005108Y004265D01*
X005214Y004265D01*
X005312Y004305D01*
X005386Y004380D01*
X005405Y004425D01*
X005405Y004395D02*
X005393Y004395D01*
X005412Y004297D02*
X005291Y004297D01*
X005161Y004530D02*
X004649Y004530D01*
X004354Y004826D01*
X004354Y005081D01*
X004334Y005101D01*
X004334Y008231D01*
X004945Y008841D01*
X004492Y008841D01*
X004452Y008881D01*
X004774Y009036D02*
X004774Y009078D01*
X004719Y009133D01*
X004722Y009135D01*
X004750Y009163D01*
X004769Y009197D01*
X004780Y009235D01*
X004780Y009374D01*
X004471Y009374D01*
X004471Y009411D01*
X004780Y009411D01*
X004780Y009550D01*
X004769Y009588D01*
X004750Y009622D01*
X004722Y009650D01*
X004688Y009670D01*
X004649Y009680D01*
X004471Y009680D01*
X004471Y009411D01*
X004434Y009411D01*
X004434Y009680D01*
X004300Y009680D01*
X004300Y009816D01*
X004447Y009962D01*
X004471Y009904D01*
X004546Y009829D01*
X004644Y009788D01*
X004687Y009788D01*
X004754Y009722D01*
X004822Y009722D01*
X004822Y009719D01*
X004822Y009672D01*
X004834Y009627D01*
X004835Y009625D01*
X004828Y009617D01*
X004828Y009428D01*
X004831Y009424D01*
X004828Y009420D01*
X004828Y009231D01*
X004927Y009132D01*
X004955Y009132D01*
X004955Y009127D01*
X004943Y009115D01*
X004864Y009036D01*
X004774Y009036D01*
X004729Y009123D02*
X004951Y009123D01*
X004837Y009222D02*
X004776Y009222D01*
X004780Y009320D02*
X004828Y009320D01*
X004828Y009419D02*
X004780Y009419D01*
X004780Y009517D02*
X004828Y009517D01*
X004828Y009616D02*
X004754Y009616D01*
X004822Y009714D02*
X004300Y009714D01*
X004300Y009813D02*
X004585Y009813D01*
X004468Y009911D02*
X004396Y009911D01*
X004106Y009896D02*
X004519Y010310D01*
X005169Y010310D01*
X005169Y010507D02*
X004441Y010507D01*
X003543Y009609D01*
X003543Y009570D01*
X003547Y009566D01*
X003911Y009203D02*
X003838Y009130D01*
X003684Y009066D01*
X003838Y009002D01*
X003911Y008929D01*
X003911Y009203D01*
X003911Y009123D02*
X003823Y009123D01*
X003783Y009025D02*
X003911Y009025D01*
X004106Y008676D02*
X003988Y008558D01*
X003543Y008558D01*
X003543Y008562D01*
X003547Y008566D01*
X003180Y008926D02*
X003067Y008926D01*
X003111Y008857D02*
X003067Y008752D01*
X003067Y009380D01*
X003111Y009274D01*
X003255Y009130D01*
X003410Y009066D01*
X003255Y009002D01*
X003111Y008857D01*
X003099Y008828D02*
X003067Y008828D01*
X003067Y009025D02*
X003310Y009025D01*
X003271Y009123D02*
X003067Y009123D01*
X003067Y009222D02*
X003163Y009222D01*
X003092Y009320D02*
X003067Y009320D01*
X003067Y009752D02*
X003067Y010380D01*
X003111Y010274D01*
X003255Y010130D01*
X003410Y010066D01*
X003255Y010002D01*
X003111Y009857D01*
X003067Y009752D01*
X003067Y009813D02*
X003092Y009813D01*
X003067Y009911D02*
X003165Y009911D01*
X003067Y010010D02*
X003274Y010010D01*
X003307Y010108D02*
X003067Y010108D01*
X003067Y010207D02*
X003178Y010207D01*
X003098Y010305D02*
X003067Y010305D01*
X003067Y010752D02*
X003067Y011380D01*
X003111Y011274D01*
X003255Y011130D01*
X003410Y011066D01*
X003255Y011002D01*
X003111Y010857D01*
X003067Y010752D01*
X003067Y010798D02*
X003086Y010798D01*
X003067Y010896D02*
X003150Y010896D01*
X003067Y010995D02*
X003248Y010995D01*
X003343Y011093D02*
X003067Y011093D01*
X003067Y011192D02*
X003193Y011192D01*
X003104Y011290D02*
X003067Y011290D01*
X003067Y011752D02*
X003067Y012380D01*
X003111Y012274D01*
X003255Y012130D01*
X003410Y012066D01*
X003255Y012002D01*
X003111Y011857D01*
X003067Y011752D01*
X003067Y011783D02*
X003080Y011783D01*
X003067Y011881D02*
X003135Y011881D01*
X003067Y011980D02*
X003233Y011980D01*
X003380Y012078D02*
X003067Y012078D01*
X003067Y012177D02*
X003208Y012177D01*
X003110Y012275D02*
X003067Y012275D01*
X003067Y012374D02*
X003070Y012374D01*
X003067Y012752D02*
X003067Y013071D01*
X003422Y013071D01*
X003255Y013002D01*
X003111Y012857D01*
X003067Y012752D01*
X003067Y012768D02*
X003074Y012768D01*
X003067Y012866D02*
X003120Y012866D01*
X003067Y012965D02*
X003218Y012965D01*
X003067Y013063D02*
X003403Y013063D01*
X003672Y013071D02*
X010420Y013071D01*
X010244Y012998D01*
X010211Y012965D01*
X006683Y012965D01*
X006569Y012851D01*
X005900Y012182D01*
X005900Y011773D01*
X005803Y011773D01*
X005795Y011765D01*
X005792Y011767D01*
X005748Y011779D01*
X005700Y011779D01*
X005698Y011779D01*
X005741Y011821D01*
X005781Y011918D01*
X005781Y012024D01*
X005741Y012122D01*
X005666Y012196D01*
X005568Y012237D01*
X005463Y012237D01*
X005365Y012196D01*
X005290Y012122D01*
X005250Y012024D01*
X005250Y011918D01*
X005290Y011821D01*
X005309Y011802D01*
X005309Y011725D01*
X005214Y011764D01*
X005171Y011764D01*
X005109Y011826D01*
X005109Y012563D01*
X005024Y012647D01*
X004629Y012647D01*
X004574Y012592D01*
X004572Y012595D01*
X004545Y012623D01*
X004510Y012643D01*
X004472Y012653D01*
X004334Y012653D01*
X004334Y012344D01*
X004296Y012344D01*
X004296Y012307D01*
X004027Y012307D01*
X004027Y012129D01*
X004037Y012091D01*
X004038Y012089D01*
X004037Y012088D01*
X004027Y012050D01*
X004027Y011872D01*
X004296Y011872D01*
X004296Y012180D01*
X004296Y012307D01*
X004334Y012307D01*
X004334Y011872D01*
X004296Y011872D01*
X004296Y011834D01*
X004334Y011834D01*
X004334Y011526D01*
X004472Y011526D01*
X004510Y011536D01*
X004545Y011556D01*
X004572Y011584D01*
X004574Y011586D01*
X004629Y011531D01*
X004853Y011531D01*
X004896Y011489D01*
X004896Y011446D01*
X004936Y011348D01*
X004993Y011291D01*
X004927Y011291D01*
X004828Y011192D01*
X004828Y011095D01*
X004304Y011095D01*
X004023Y011371D01*
X004061Y011463D01*
X004061Y011579D01*
X004085Y011556D01*
X004119Y011536D01*
X004157Y011526D01*
X004296Y011526D01*
X004296Y011834D01*
X004027Y011834D01*
X004027Y011752D01*
X003983Y011857D01*
X003838Y012002D01*
X003684Y012066D01*
X003838Y012130D01*
X003983Y012274D01*
X004027Y012380D01*
X004027Y012344D01*
X004296Y012344D01*
X004296Y012653D01*
X004157Y012653D01*
X004119Y012643D01*
X004085Y012623D01*
X004061Y012599D01*
X004061Y012668D01*
X003983Y012857D01*
X003838Y013002D01*
X003672Y013071D01*
X003690Y013063D02*
X010401Y013063D01*
X010651Y013071D02*
X011019Y013071D01*
X011019Y012738D01*
X010971Y012853D01*
X010827Y012998D01*
X010651Y013071D01*
X010669Y013063D02*
X011019Y013063D01*
X011019Y012965D02*
X010860Y012965D01*
X010958Y012866D02*
X011019Y012866D01*
X011007Y012768D02*
X011019Y012768D01*
X011019Y012386D02*
X011019Y011738D01*
X010971Y011853D01*
X010827Y011998D01*
X010672Y012062D01*
X010827Y012126D01*
X010971Y012270D01*
X011019Y012386D01*
X011019Y012374D02*
X011014Y012374D01*
X011019Y012275D02*
X010973Y012275D01*
X011019Y012177D02*
X010878Y012177D01*
X011019Y012078D02*
X010712Y012078D01*
X010845Y011980D02*
X011019Y011980D01*
X011019Y011881D02*
X010943Y011881D01*
X011001Y011783D02*
X011019Y011783D01*
X011019Y011386D02*
X011019Y010738D01*
X010971Y010853D01*
X010827Y010998D01*
X010672Y011062D01*
X010827Y011126D01*
X010971Y011270D01*
X011019Y011386D01*
X011019Y011290D02*
X010979Y011290D01*
X011019Y011192D02*
X010893Y011192D01*
X011019Y011093D02*
X010748Y011093D01*
X010830Y010995D02*
X011019Y010995D01*
X011019Y010896D02*
X010928Y010896D01*
X010994Y010798D02*
X011019Y010798D01*
X011019Y010386D02*
X011019Y009738D01*
X010971Y009853D01*
X010827Y009998D01*
X010672Y010062D01*
X010827Y010126D01*
X010971Y010270D01*
X011019Y010386D01*
X011019Y010305D02*
X010986Y010305D01*
X011019Y010207D02*
X010908Y010207D01*
X011019Y010108D02*
X010784Y010108D01*
X010798Y010010D02*
X011019Y010010D01*
X011019Y009911D02*
X010913Y009911D01*
X010988Y009813D02*
X011019Y009813D01*
X011019Y009386D02*
X011019Y008738D01*
X010971Y008853D01*
X010827Y008998D01*
X010672Y009062D01*
X010827Y009126D01*
X010971Y009270D01*
X011019Y009386D01*
X011019Y009320D02*
X010992Y009320D01*
X011019Y009222D02*
X010923Y009222D01*
X011019Y009123D02*
X010821Y009123D01*
X010762Y009025D02*
X011019Y009025D01*
X011019Y008926D02*
X010898Y008926D01*
X010982Y008828D02*
X011019Y008828D01*
X011019Y008386D02*
X011019Y007738D01*
X010971Y007853D01*
X010827Y007998D01*
X010672Y008062D01*
X010827Y008126D01*
X010971Y008270D01*
X011019Y008386D01*
X011019Y008335D02*
X010998Y008335D01*
X011019Y008237D02*
X010938Y008237D01*
X011019Y008138D02*
X010839Y008138D01*
X010726Y008040D02*
X011019Y008040D01*
X011019Y007941D02*
X010883Y007941D01*
X010976Y007843D02*
X011019Y007843D01*
X011016Y007744D02*
X011019Y007744D01*
X011019Y007386D02*
X011019Y006738D01*
X010971Y006853D01*
X010827Y006998D01*
X010672Y007062D01*
X010827Y007126D01*
X010971Y007270D01*
X011019Y007386D01*
X011019Y007350D02*
X011004Y007350D01*
X011019Y007252D02*
X010953Y007252D01*
X011019Y007153D02*
X010854Y007153D01*
X010690Y007055D02*
X011019Y007055D01*
X011019Y006956D02*
X010868Y006956D01*
X010967Y006858D02*
X011019Y006858D01*
X011010Y006759D02*
X011019Y006759D01*
X011019Y006386D02*
X011019Y005738D01*
X010971Y005853D01*
X010827Y005998D01*
X010672Y006062D01*
X010827Y006126D01*
X010971Y006270D01*
X011019Y006386D01*
X011019Y006365D02*
X011011Y006365D01*
X011019Y006267D02*
X010968Y006267D01*
X011019Y006168D02*
X010869Y006168D01*
X011019Y006070D02*
X010691Y006070D01*
X010853Y005971D02*
X011019Y005971D01*
X011019Y005873D02*
X010952Y005873D01*
X011004Y005774D02*
X011019Y005774D01*
X011019Y005386D02*
X011019Y004738D01*
X010971Y004853D01*
X010827Y004998D01*
X010672Y005062D01*
X010827Y005126D01*
X010971Y005270D01*
X011019Y005386D01*
X011017Y005380D02*
X011019Y005380D01*
X011019Y005282D02*
X010976Y005282D01*
X011019Y005183D02*
X010884Y005183D01*
X011019Y005085D02*
X010728Y005085D01*
X010838Y004986D02*
X011019Y004986D01*
X011019Y004888D02*
X010937Y004888D01*
X010998Y004789D02*
X011019Y004789D01*
X011019Y004386D02*
X011019Y003738D01*
X010971Y003853D01*
X010827Y003998D01*
X010672Y004062D01*
X010827Y004126D01*
X010971Y004270D01*
X011019Y004386D01*
X011019Y004297D02*
X010982Y004297D01*
X011019Y004198D02*
X010899Y004198D01*
X011019Y004100D02*
X010764Y004100D01*
X010819Y004001D02*
X011019Y004001D01*
X011019Y003903D02*
X010922Y003903D01*
X010992Y003804D02*
X011019Y003804D01*
X011019Y003386D02*
X011019Y002738D01*
X010971Y002853D01*
X010827Y002998D01*
X010672Y003062D01*
X010827Y003126D01*
X010971Y003270D01*
X011019Y003386D01*
X011019Y003312D02*
X010988Y003312D01*
X011019Y003213D02*
X010914Y003213D01*
X011019Y003115D02*
X010800Y003115D01*
X010783Y003016D02*
X011019Y003016D01*
X011019Y002918D02*
X010907Y002918D01*
X010985Y002819D02*
X011019Y002819D01*
X011019Y002386D02*
X011019Y001738D01*
X010971Y001853D01*
X010827Y001998D01*
X010672Y002062D01*
X010827Y002126D01*
X010971Y002270D01*
X011019Y002386D01*
X011019Y002327D02*
X010995Y002327D01*
X011019Y002228D02*
X010929Y002228D01*
X011019Y002130D02*
X010831Y002130D01*
X010746Y002031D02*
X011019Y002031D01*
X011019Y001933D02*
X010892Y001933D01*
X010979Y001834D02*
X011019Y001834D01*
X011019Y001386D02*
X011019Y001098D01*
X010759Y001098D01*
X010827Y001126D01*
X010971Y001270D01*
X011019Y001386D01*
X011019Y001342D02*
X011001Y001342D01*
X011019Y001243D02*
X010944Y001243D01*
X011019Y001145D02*
X010846Y001145D01*
X010535Y001562D02*
X010011Y002085D01*
X010011Y002810D01*
X009815Y003007D01*
X009815Y003715D01*
X009618Y003912D01*
X009618Y004660D01*
X009421Y004857D01*
X009421Y005566D01*
X009224Y005763D01*
X009224Y006471D01*
X009027Y006668D01*
X009027Y007416D01*
X008830Y007613D01*
X008830Y008322D01*
X008634Y008519D01*
X008634Y009227D01*
X008437Y009424D01*
X008437Y010133D01*
X008260Y010310D01*
X007610Y010310D01*
X007610Y010507D02*
X008338Y010507D01*
X008634Y010211D01*
X008634Y009503D01*
X008830Y009306D01*
X008830Y008597D01*
X009027Y008400D01*
X009027Y007692D01*
X009224Y007495D01*
X009224Y006747D01*
X009421Y006550D01*
X009421Y005841D01*
X009618Y005644D01*
X009618Y004936D01*
X009815Y004739D01*
X009815Y003991D01*
X010011Y003794D01*
X010011Y003085D01*
X010535Y002562D01*
X010336Y003036D02*
X010248Y003124D01*
X010398Y003062D01*
X010336Y003036D01*
X010270Y003115D02*
X010257Y003115D01*
X010535Y003562D02*
X010011Y004085D01*
X010011Y004818D01*
X009815Y005015D01*
X009815Y005723D01*
X009618Y005920D01*
X009618Y006629D01*
X009421Y006826D01*
X009421Y007574D01*
X009224Y007770D01*
X009224Y008479D01*
X009027Y008676D01*
X009027Y009385D01*
X008830Y009581D01*
X008830Y010290D01*
X008417Y010704D01*
X007610Y010704D01*
X007610Y010900D02*
X008496Y010900D01*
X009027Y010369D01*
X009027Y009660D01*
X009224Y009463D01*
X009224Y008755D01*
X009421Y008558D01*
X009421Y007849D01*
X009618Y007652D01*
X009618Y006904D01*
X009815Y006707D01*
X009815Y005999D01*
X010011Y005802D01*
X010011Y005085D01*
X010535Y004562D01*
X010336Y005036D02*
X010248Y005124D01*
X010398Y005062D01*
X010336Y005036D01*
X010343Y005085D02*
X010287Y005085D01*
X010535Y005562D02*
X010011Y006085D01*
X010011Y006786D01*
X009815Y006983D01*
X009815Y007731D01*
X009618Y007928D01*
X009618Y008637D01*
X009421Y008833D01*
X009421Y009542D01*
X009224Y009739D01*
X009224Y010448D01*
X008574Y011097D01*
X007610Y011097D01*
X007529Y011291D02*
X007469Y011291D01*
X007469Y011351D01*
X007470Y011351D01*
X007470Y011395D01*
X008277Y011395D01*
X008381Y011292D01*
X007529Y011292D01*
X007529Y011291D01*
X007470Y011389D02*
X008284Y011389D01*
X008358Y011589D02*
X009421Y010526D01*
X009421Y009818D01*
X009618Y009621D01*
X009618Y008912D01*
X009815Y008715D01*
X009815Y008007D01*
X010011Y007810D01*
X010011Y007085D01*
X010535Y006562D01*
X010336Y007036D02*
X010248Y007124D01*
X010398Y007062D01*
X010336Y007036D01*
X010317Y007055D02*
X010381Y007055D01*
X010535Y007562D02*
X010011Y008085D01*
X010011Y008794D01*
X009815Y008991D01*
X009815Y009700D01*
X009618Y009896D01*
X009618Y010605D01*
X008437Y011786D01*
X007157Y011786D01*
X007078Y011707D01*
X007078Y011432D01*
X006882Y011432D02*
X006882Y011786D01*
X007078Y011983D01*
X008535Y011983D01*
X009618Y010900D01*
X009807Y010711D01*
X009807Y010003D01*
X010004Y009806D01*
X010004Y009093D01*
X010535Y008562D01*
X010398Y008062D02*
X010248Y008124D01*
X010336Y008036D01*
X010398Y008062D01*
X010344Y008040D02*
X010332Y008040D01*
X010336Y009036D02*
X010248Y009124D01*
X010398Y009062D01*
X010336Y009036D01*
X010250Y009123D02*
X010249Y009123D01*
X010535Y009562D02*
X010004Y010093D01*
X010004Y010790D01*
X008614Y012180D01*
X007000Y012180D01*
X006685Y011865D01*
X006685Y011432D01*
X006488Y011432D02*
X006488Y011944D01*
X006921Y012377D01*
X008720Y012377D01*
X010004Y011093D01*
X010076Y011020D01*
X010535Y010562D01*
X010286Y010108D02*
X010264Y010108D01*
X010248Y010124D02*
X010398Y010062D01*
X010336Y010036D01*
X010248Y010124D01*
X010336Y011036D02*
X010248Y011124D01*
X010398Y011062D01*
X010336Y011036D01*
X010322Y011093D02*
X010279Y011093D01*
X010097Y011275D02*
X008993Y012379D01*
X009443Y012379D01*
X010061Y011761D01*
X010021Y011664D01*
X010021Y011459D01*
X010097Y011275D01*
X010091Y011290D02*
X010082Y011290D01*
X010050Y011389D02*
X009983Y011389D01*
X010021Y011487D02*
X009885Y011487D01*
X009786Y011586D02*
X010021Y011586D01*
X010029Y011684D02*
X009688Y011684D01*
X009589Y011783D02*
X010039Y011783D01*
X009941Y011881D02*
X009491Y011881D01*
X009392Y011980D02*
X009842Y011980D01*
X009744Y012078D02*
X009294Y012078D01*
X009195Y012177D02*
X009645Y012177D01*
X009547Y012275D02*
X009097Y012275D01*
X008998Y012374D02*
X009448Y012374D01*
X009523Y012574D02*
X010535Y011562D01*
X010336Y012036D02*
X010248Y012124D01*
X010398Y012062D01*
X010336Y012036D01*
X010358Y012078D02*
X010294Y012078D01*
X010097Y012275D02*
X009796Y012576D01*
X010021Y012576D01*
X010021Y012459D01*
X010097Y012275D01*
X010097Y012275D01*
X010056Y012374D02*
X009998Y012374D01*
X010021Y012472D02*
X009900Y012472D01*
X009801Y012571D02*
X010021Y012571D01*
X010326Y012770D02*
X010535Y012562D01*
X010326Y012770D02*
X006763Y012770D01*
X006094Y012101D01*
X006094Y011432D01*
X006291Y011432D02*
X006291Y012022D01*
X006842Y012574D01*
X009523Y012574D01*
X008358Y011589D02*
X007275Y011589D01*
X007275Y011432D01*
X006289Y012571D02*
X005101Y012571D01*
X005109Y012472D02*
X006190Y012472D01*
X006092Y012374D02*
X005109Y012374D01*
X005109Y012275D02*
X005993Y012275D01*
X005900Y012177D02*
X005686Y012177D01*
X005759Y012078D02*
X005900Y012078D01*
X005900Y011980D02*
X005781Y011980D01*
X005766Y011881D02*
X005900Y011881D01*
X005900Y011783D02*
X005702Y011783D01*
X005700Y011779D02*
X005700Y011432D01*
X005700Y011779D01*
X005700Y011684D02*
X005700Y011684D01*
X005700Y011586D02*
X005700Y011586D01*
X005700Y011487D02*
X005700Y011487D01*
X005700Y011432D02*
X005700Y011432D01*
X005700Y010900D01*
X006389Y010211D01*
X007019Y009581D01*
X007118Y009581D01*
X007374Y009326D01*
X007610Y009326D01*
X007610Y009126D01*
X007671Y009126D01*
X007652Y009107D01*
X007652Y008716D01*
X007564Y008804D01*
X007470Y008898D01*
X007470Y009072D01*
X007469Y009072D01*
X007469Y009126D01*
X007610Y009126D01*
X007610Y009326D01*
X007610Y009326D01*
X007610Y009320D02*
X007610Y009320D01*
X007610Y009222D02*
X007610Y009222D01*
X007668Y009123D02*
X007469Y009123D01*
X007470Y009025D02*
X007652Y009025D01*
X007652Y008926D02*
X007470Y008926D01*
X007540Y008828D02*
X007652Y008828D01*
X007639Y008729D02*
X007652Y008729D01*
X007484Y008609D02*
X007484Y007877D01*
X007413Y007806D01*
X007413Y007672D01*
X006941Y007475D01*
X006941Y005916D01*
X006933Y005908D01*
X006470Y005445D01*
X006470Y005076D01*
X006726Y005076D02*
X006726Y004678D01*
X006578Y004530D01*
X006204Y004530D01*
X006487Y004336D02*
X006659Y004336D01*
X006743Y004420D01*
X006743Y004333D01*
X006754Y004295D01*
X006773Y004261D01*
X006782Y004252D01*
X006487Y004252D01*
X006487Y004295D01*
X006487Y004336D01*
X006487Y004297D02*
X006753Y004297D01*
X006743Y004395D02*
X006718Y004395D01*
X007012Y004549D02*
X007012Y004857D01*
X006929Y004857D01*
X006929Y005221D01*
X006940Y005211D01*
X007037Y005170D01*
X007143Y005170D01*
X007241Y005211D01*
X007315Y005285D01*
X007356Y005383D01*
X007356Y005461D01*
X007650Y005461D01*
X007735Y005545D01*
X007735Y005941D01*
X007676Y005999D01*
X007735Y006057D01*
X007735Y006452D01*
X007650Y006537D01*
X007541Y006537D01*
X007553Y006564D01*
X007553Y006670D01*
X007512Y006767D01*
X007437Y006842D01*
X007364Y006872D01*
X007394Y006872D01*
X007394Y007141D01*
X007432Y007141D01*
X007432Y006872D01*
X007610Y006872D01*
X007645Y006882D01*
X007648Y006878D01*
X007757Y006878D01*
X007757Y006700D01*
X007757Y006444D01*
X007767Y006406D01*
X007787Y006372D01*
X007815Y006344D01*
X007849Y006324D01*
X007887Y006314D01*
X007966Y006314D01*
X008045Y006314D01*
X008083Y006324D01*
X008094Y006331D01*
X008105Y006324D01*
X008143Y006314D01*
X008222Y006314D01*
X008301Y006314D01*
X008339Y006324D01*
X008350Y006331D01*
X008361Y006324D01*
X008399Y006314D01*
X008478Y006314D01*
X008556Y006314D01*
X008595Y006324D01*
X008606Y006331D01*
X008617Y006324D01*
X008655Y006314D01*
X008734Y006314D01*
X008812Y006314D01*
X008850Y006324D01*
X008885Y006344D01*
X008913Y006372D01*
X008932Y006406D01*
X008943Y006444D01*
X008943Y006478D01*
X009030Y006391D01*
X009030Y005682D01*
X009226Y005485D01*
X009226Y004777D01*
X009423Y004580D01*
X009423Y003832D01*
X009620Y003635D01*
X009620Y002926D01*
X009817Y002729D01*
X009817Y002630D01*
X009807Y002633D01*
X009629Y002633D01*
X009629Y002364D01*
X009591Y002364D01*
X009591Y002633D01*
X009489Y002633D01*
X009489Y002893D01*
X009520Y002923D01*
X009560Y003021D01*
X009560Y003126D01*
X009520Y003224D01*
X009445Y003299D01*
X009348Y003339D01*
X009242Y003339D01*
X009145Y003299D01*
X009070Y003224D01*
X009029Y003126D01*
X009029Y003021D01*
X009070Y002923D01*
X009100Y002893D01*
X009100Y002633D01*
X008960Y002633D01*
X008960Y002364D01*
X008922Y002364D01*
X008922Y002633D01*
X008744Y002633D01*
X008731Y002630D01*
X008731Y002978D01*
X008646Y003063D01*
X008024Y003063D01*
X008116Y003155D01*
X008230Y003269D01*
X008230Y004336D01*
X008234Y004336D01*
X008706Y004336D01*
X008820Y004450D01*
X008928Y004558D01*
X008928Y004732D01*
X008937Y004741D01*
X008937Y005333D01*
X008852Y005418D01*
X008672Y005418D01*
X008672Y005637D01*
X008702Y005710D01*
X008702Y005815D01*
X008662Y005913D01*
X008587Y005988D01*
X008490Y006028D01*
X008384Y006028D01*
X008286Y005988D01*
X008212Y005913D01*
X008171Y005815D01*
X008171Y005710D01*
X008212Y005612D01*
X008283Y005541D01*
X008283Y005418D01*
X008103Y005418D01*
X008093Y005407D01*
X008083Y005413D01*
X008045Y005423D01*
X007966Y005423D01*
X007966Y005037D01*
X007966Y005037D01*
X007966Y005423D01*
X007887Y005423D01*
X007849Y005413D01*
X007815Y005393D01*
X007787Y005365D01*
X007767Y005331D01*
X007757Y005293D01*
X007757Y005037D01*
X007757Y004836D01*
X007741Y004852D01*
X007345Y004852D01*
X007290Y004797D01*
X007289Y004800D01*
X007261Y004828D01*
X007227Y004847D01*
X007189Y004857D01*
X007050Y004857D01*
X007050Y004549D01*
X007012Y004549D01*
X007012Y004592D02*
X007050Y004592D01*
X007050Y004691D02*
X007012Y004691D01*
X007012Y004789D02*
X007050Y004789D01*
X006929Y004888D02*
X007757Y004888D01*
X007757Y004986D02*
X006929Y004986D01*
X006929Y005085D02*
X007757Y005085D01*
X007757Y005037D02*
X007966Y005037D01*
X007757Y005037D01*
X007757Y005183D02*
X007174Y005183D01*
X007006Y005183D02*
X006929Y005183D01*
X006825Y005457D02*
X006757Y005457D01*
X006851Y005551D01*
X006825Y005489D01*
X006825Y005457D01*
X006825Y005479D02*
X006778Y005479D01*
X007090Y005436D02*
X007090Y005751D01*
X007405Y005751D01*
X007413Y005743D01*
X007150Y005999D02*
X007135Y006013D01*
X007135Y005984D01*
X007150Y005999D01*
X006933Y005908D02*
X007090Y005751D01*
X006738Y005989D02*
X006738Y005989D01*
X006721Y005971D02*
X004726Y005971D01*
X004726Y005873D02*
X004980Y005873D01*
X005004Y005994D02*
X005182Y005994D01*
X005182Y006263D01*
X004873Y006263D01*
X004873Y006125D01*
X004884Y006087D01*
X004903Y006052D01*
X004931Y006024D01*
X004965Y006005D01*
X005004Y005994D01*
X004893Y006070D02*
X004726Y006070D01*
X004726Y006168D02*
X004873Y006168D01*
X004726Y006267D02*
X005182Y006267D01*
X005219Y006267D02*
X006746Y006267D01*
X006726Y006354D02*
X006726Y006740D01*
X006726Y006740D01*
X006726Y006740D01*
X006517Y006740D01*
X006470Y006740D01*
X006470Y006740D01*
X006470Y006354D01*
X006549Y006354D01*
X006587Y006364D01*
X006598Y006370D01*
X006609Y006364D01*
X006647Y006354D01*
X006726Y006354D01*
X006726Y006365D02*
X006726Y006365D01*
X006726Y006464D02*
X006726Y006464D01*
X006726Y006562D02*
X006726Y006562D01*
X006726Y006661D02*
X006726Y006661D01*
X006470Y006661D02*
X006470Y006661D01*
X006470Y006740D02*
X006470Y006740D01*
X006470Y006740D01*
X006470Y006354D01*
X006391Y006354D01*
X006353Y006364D01*
X006342Y006370D01*
X006331Y006364D01*
X006293Y006354D01*
X006214Y006354D01*
X006214Y006740D01*
X006214Y006740D01*
X006261Y006740D01*
X006470Y006740D01*
X006470Y006562D02*
X006470Y006562D01*
X006470Y006464D02*
X006470Y006464D01*
X006470Y006365D02*
X006470Y006365D01*
X006589Y006365D02*
X006606Y006365D01*
X006746Y006168D02*
X005528Y006168D01*
X005508Y006070D02*
X006746Y006070D01*
X006622Y005873D02*
X005578Y005873D01*
X005581Y005774D02*
X006524Y005774D01*
X006425Y005676D02*
X005581Y005676D01*
X005581Y005577D02*
X006327Y005577D01*
X006275Y005479D02*
X005581Y005479D01*
X005279Y005652D02*
X004531Y005633D01*
X004531Y008113D01*
X005220Y008802D01*
X005504Y008802D01*
X005504Y008991D01*
X005700Y008991D02*
X005700Y008731D01*
X005555Y008585D01*
X005319Y008585D01*
X004728Y007995D01*
X004728Y007286D01*
X005260Y007286D01*
X005200Y007306D01*
X005200Y006794D01*
X005522Y006759D02*
X005749Y006759D01*
X005749Y006740D02*
X005749Y006484D01*
X005759Y006446D01*
X005779Y006411D01*
X005807Y006384D01*
X005841Y006364D01*
X005879Y006354D01*
X005958Y006354D01*
X006037Y006354D01*
X006075Y006364D01*
X006086Y006370D01*
X006097Y006364D01*
X006135Y006354D01*
X006214Y006354D01*
X006214Y006740D01*
X006214Y006740D01*
X006214Y006740D01*
X006005Y006740D01*
X005958Y006740D01*
X005958Y006740D01*
X005958Y006740D01*
X005749Y006740D01*
X005749Y006661D02*
X005522Y006661D01*
X005488Y006562D02*
X005749Y006562D01*
X005754Y006464D02*
X005521Y006464D01*
X005528Y006365D02*
X005839Y006365D01*
X005958Y006365D02*
X005958Y006365D01*
X005958Y006354D02*
X005958Y006740D01*
X005958Y006740D01*
X005958Y006354D01*
X005958Y006464D02*
X005958Y006464D01*
X005958Y006562D02*
X005958Y006562D01*
X005958Y006661D02*
X005958Y006661D01*
X005958Y006759D02*
X005958Y006759D01*
X005958Y006858D02*
X005958Y006858D01*
X005958Y006956D02*
X005958Y006956D01*
X005958Y007055D02*
X005958Y007055D01*
X005979Y007153D02*
X005879Y007153D01*
X005979Y007252D02*
X006173Y007252D01*
X005929Y007739D02*
X005929Y007837D01*
X005870Y007896D01*
X005870Y008231D01*
X005791Y008310D01*
X005791Y008546D01*
X005897Y008652D01*
X005897Y008991D01*
X006094Y008991D02*
X006094Y008322D01*
X006303Y008113D01*
X006421Y008113D01*
X006697Y008349D02*
X006697Y008467D01*
X006488Y008676D01*
X006488Y008991D01*
X006291Y008991D02*
X006291Y008589D01*
X006350Y008530D01*
X006350Y008440D01*
X006685Y008751D02*
X006685Y008991D01*
X006685Y008751D02*
X006783Y008652D01*
X007019Y008440D01*
X007287Y008546D02*
X007078Y008755D01*
X007078Y008991D01*
X007275Y008991D02*
X007275Y008818D01*
X007484Y008609D01*
X007287Y008546D02*
X007287Y008137D01*
X007137Y007987D01*
X006941Y007987D01*
X006500Y007739D02*
X005929Y007739D01*
X005598Y008164D02*
X005588Y008174D01*
X005554Y008194D01*
X005515Y008204D01*
X005310Y008204D01*
X005310Y007887D01*
X005210Y007887D01*
X005210Y008201D01*
X005399Y008391D01*
X005597Y008391D01*
X005597Y008229D01*
X005630Y008196D01*
X005598Y008164D01*
X005597Y008237D02*
X005245Y008237D01*
X005210Y008138D02*
X005310Y008138D01*
X005310Y008040D02*
X005210Y008040D01*
X005210Y007941D02*
X005310Y007941D01*
X005343Y008335D02*
X005597Y008335D01*
X005082Y008979D02*
X004945Y008841D01*
X005082Y008979D02*
X005149Y009050D01*
X005149Y009326D01*
X005169Y009326D01*
X005169Y009522D01*
X005169Y009719D02*
X004822Y009719D01*
X005169Y009719D01*
X005169Y009719D01*
X005897Y009719D01*
X006389Y010211D01*
X005504Y011432D02*
X005504Y011959D01*
X005515Y011971D01*
X005345Y012177D02*
X005109Y012177D01*
X005109Y012078D02*
X005272Y012078D01*
X005250Y011980D02*
X005109Y011980D01*
X005109Y011881D02*
X005265Y011881D01*
X005309Y011783D02*
X005152Y011783D01*
X005161Y011499D02*
X004799Y011861D01*
X004826Y011853D01*
X004826Y012326D01*
X004334Y012374D02*
X004296Y012374D01*
X004296Y012472D02*
X004334Y012472D01*
X004334Y012571D02*
X004296Y012571D01*
X004061Y012669D02*
X006387Y012669D01*
X006486Y012768D02*
X004020Y012768D01*
X003974Y012866D02*
X006584Y012866D01*
X006683Y012965D02*
X003876Y012965D01*
X004024Y012374D02*
X004027Y012374D01*
X004027Y012275D02*
X003983Y012275D01*
X004027Y012177D02*
X003885Y012177D01*
X004034Y012078D02*
X003714Y012078D01*
X003861Y011980D02*
X004027Y011980D01*
X004027Y011881D02*
X003959Y011881D01*
X004014Y011783D02*
X004027Y011783D01*
X004296Y011783D02*
X004334Y011783D01*
X004334Y011881D02*
X004296Y011881D01*
X004296Y011980D02*
X004334Y011980D01*
X004334Y012078D02*
X004296Y012078D01*
X004296Y012177D02*
X004334Y012177D01*
X004334Y012275D02*
X004296Y012275D01*
X004296Y011684D02*
X004334Y011684D01*
X004334Y011586D02*
X004296Y011586D01*
X004061Y011487D02*
X004896Y011487D01*
X004919Y011389D02*
X004030Y011389D01*
X004105Y011290D02*
X004926Y011290D01*
X004828Y011192D02*
X004205Y011192D01*
X004224Y010900D02*
X003563Y011550D01*
X003547Y011566D01*
X003750Y011093D02*
X003684Y011066D01*
X003838Y011002D01*
X003983Y010857D01*
X004023Y010760D01*
X004089Y010760D01*
X004087Y010762D01*
X003750Y011093D01*
X003846Y010995D02*
X003851Y010995D01*
X003944Y010896D02*
X003951Y010896D01*
X004008Y010798D02*
X004051Y010798D01*
X004224Y010900D02*
X005169Y010900D01*
X005169Y010704D02*
X004362Y010704D01*
X004224Y010566D01*
X003547Y010566D01*
X003753Y010094D02*
X003713Y010054D01*
X003684Y010066D01*
X003753Y010094D01*
X004018Y010359D02*
X004030Y010371D01*
X004023Y010371D01*
X004018Y010359D01*
X004106Y009896D02*
X004106Y008676D01*
X004237Y008532D02*
X004360Y008532D01*
X004262Y008434D02*
X004139Y008434D01*
X004163Y008335D02*
X004008Y008335D01*
X003945Y008237D02*
X004140Y008237D01*
X004140Y008138D02*
X003847Y008138D01*
X003757Y008040D02*
X004140Y008040D01*
X004140Y007941D02*
X003903Y007941D01*
X003991Y007843D02*
X004140Y007843D01*
X004140Y007744D02*
X004032Y007744D01*
X004061Y007646D02*
X004140Y007646D01*
X004140Y007547D02*
X004061Y007547D01*
X004054Y007449D02*
X004140Y007449D01*
X004140Y007350D02*
X004013Y007350D01*
X003956Y007252D02*
X004140Y007252D01*
X004140Y007153D02*
X003858Y007153D01*
X003721Y007055D02*
X004140Y007055D01*
X004140Y006956D02*
X003888Y006956D01*
X003985Y006858D02*
X004140Y006858D01*
X004140Y006759D02*
X004025Y006759D01*
X004061Y006661D02*
X004140Y006661D01*
X004140Y006562D02*
X004061Y006562D01*
X004060Y006464D02*
X004140Y006464D01*
X004140Y006365D02*
X004019Y006365D01*
X003971Y006267D02*
X004140Y006267D01*
X004140Y006168D02*
X003873Y006168D01*
X003873Y005971D02*
X004140Y005971D01*
X004140Y005873D02*
X003972Y005873D01*
X004019Y005774D02*
X004140Y005774D01*
X004140Y005676D02*
X004060Y005676D01*
X004061Y005577D02*
X004140Y005577D01*
X004140Y005479D02*
X004061Y005479D01*
X004025Y005380D02*
X004133Y005380D01*
X004072Y005282D02*
X003985Y005282D01*
X004072Y005183D02*
X003888Y005183D01*
X003720Y005085D02*
X004072Y005085D01*
X004072Y004986D02*
X003858Y004986D01*
X003957Y004888D02*
X004072Y004888D01*
X004127Y004789D02*
X004013Y004789D01*
X004054Y004691D02*
X004214Y004691D01*
X004312Y004592D02*
X004061Y004592D01*
X004061Y004494D02*
X004411Y004494D01*
X004509Y004395D02*
X004032Y004395D01*
X003991Y004297D02*
X005031Y004297D01*
X004846Y004058D02*
X004354Y003566D01*
X003547Y003566D01*
X003172Y003213D02*
X003067Y003213D01*
X003111Y003274D02*
X003255Y003130D01*
X003410Y003066D01*
X003255Y003002D01*
X003111Y002857D01*
X003067Y002752D01*
X003067Y003380D01*
X003111Y003274D01*
X003095Y003312D02*
X003067Y003312D01*
X003067Y003115D02*
X003292Y003115D01*
X003290Y003016D02*
X003067Y003016D01*
X003067Y002918D02*
X003171Y002918D01*
X003095Y002819D02*
X003067Y002819D01*
X003067Y003752D02*
X003067Y004384D01*
X003111Y004278D01*
X003255Y004134D01*
X003414Y004068D01*
X003255Y004002D01*
X003111Y003857D01*
X003067Y003752D01*
X003067Y003804D02*
X003089Y003804D01*
X003067Y003903D02*
X003156Y003903D01*
X003067Y004001D02*
X003255Y004001D01*
X003337Y004100D02*
X003067Y004100D01*
X003067Y004198D02*
X003191Y004198D01*
X003103Y004297D02*
X003067Y004297D01*
X003067Y004755D02*
X003067Y005384D01*
X003111Y005278D01*
X003255Y005134D01*
X003410Y005070D01*
X003255Y005006D01*
X003111Y004861D01*
X003067Y004755D01*
X003067Y004789D02*
X003081Y004789D01*
X003067Y004888D02*
X003137Y004888D01*
X003067Y004986D02*
X003236Y004986D01*
X003373Y005085D02*
X003067Y005085D01*
X003067Y005183D02*
X003206Y005183D01*
X003109Y005282D02*
X003067Y005282D01*
X003067Y005380D02*
X003069Y005380D01*
X003067Y005755D02*
X003067Y006384D01*
X003111Y006278D01*
X003255Y006134D01*
X003410Y006070D01*
X003255Y006006D01*
X003111Y005861D01*
X003067Y005755D01*
X003067Y005774D02*
X003075Y005774D01*
X003067Y005873D02*
X003122Y005873D01*
X003067Y005971D02*
X003221Y005971D01*
X003067Y006070D02*
X003410Y006070D01*
X003221Y006168D02*
X003067Y006168D01*
X003067Y006267D02*
X003122Y006267D01*
X003075Y006365D02*
X003067Y006365D01*
X003067Y006755D02*
X003067Y007384D01*
X003111Y007278D01*
X003255Y007134D01*
X003410Y007070D01*
X003255Y007006D01*
X003111Y006861D01*
X003067Y006755D01*
X003067Y006759D02*
X003069Y006759D01*
X003067Y006858D02*
X003109Y006858D01*
X003067Y006956D02*
X003206Y006956D01*
X003067Y007055D02*
X003373Y007055D01*
X003236Y007153D02*
X003067Y007153D01*
X003067Y007252D02*
X003137Y007252D01*
X003081Y007350D02*
X003067Y007350D01*
X003067Y007755D02*
X003067Y008380D01*
X003111Y008274D01*
X003255Y008130D01*
X003405Y008068D01*
X003255Y008006D01*
X003111Y007861D01*
X003067Y007755D01*
X003067Y007843D02*
X003103Y007843D01*
X003067Y007941D02*
X003191Y007941D01*
X003067Y008040D02*
X003337Y008040D01*
X003247Y008138D02*
X003067Y008138D01*
X003067Y008237D02*
X003148Y008237D01*
X003086Y008335D02*
X003067Y008335D01*
X004434Y009419D02*
X004471Y009419D01*
X004471Y009517D02*
X004434Y009517D01*
X004434Y009616D02*
X004471Y009616D01*
X004834Y009916D02*
X005169Y009916D01*
X004834Y009916D02*
X004697Y010054D01*
X004574Y011586D02*
X004575Y011586D01*
X007610Y009719D02*
X008004Y009719D01*
X008193Y009530D01*
X008193Y009255D01*
X008311Y009137D01*
X008311Y008613D01*
X008303Y008723D01*
X007956Y009137D02*
X007956Y009452D01*
X007886Y009522D01*
X007610Y009522D01*
X007956Y009137D02*
X007846Y009026D01*
X007846Y007707D01*
X007846Y007200D01*
X007757Y006858D02*
X007400Y006858D01*
X007394Y006956D02*
X007432Y006956D01*
X007432Y007055D02*
X007394Y007055D01*
X007213Y006873D02*
X007137Y006842D01*
X007135Y006840D01*
X007135Y006911D01*
X007144Y006902D01*
X007178Y006883D01*
X007213Y006873D01*
X007174Y006858D02*
X007135Y006858D01*
X007287Y006617D02*
X007287Y006381D01*
X007413Y006255D01*
X007735Y006267D02*
X009030Y006267D01*
X009030Y006365D02*
X008906Y006365D01*
X008943Y006464D02*
X008957Y006464D01*
X008734Y006464D02*
X008734Y006464D01*
X008734Y006562D02*
X008734Y006562D01*
X008734Y006661D02*
X008734Y006661D01*
X008734Y006700D02*
X008734Y006314D01*
X008734Y006700D01*
X008734Y006700D01*
X008734Y006700D01*
X008734Y007087D01*
X008812Y007087D01*
X008833Y007081D01*
X008833Y007336D01*
X008646Y007523D01*
X008646Y007511D01*
X008636Y007472D01*
X008625Y007454D01*
X008636Y007435D01*
X008646Y007397D01*
X008646Y007219D01*
X008377Y007219D01*
X008339Y007219D01*
X008339Y007527D01*
X008339Y007689D01*
X008377Y007689D01*
X008377Y007219D01*
X008377Y007181D01*
X008646Y007181D01*
X008646Y007084D01*
X008655Y007087D01*
X008734Y007087D01*
X008734Y006700D01*
X008524Y006700D01*
X008478Y006700D01*
X008478Y006314D01*
X008478Y006700D01*
X008478Y006700D01*
X008478Y006700D01*
X008734Y006700D01*
X008734Y006700D01*
X008734Y006759D02*
X008734Y006759D01*
X008734Y006858D02*
X008734Y006858D01*
X008734Y006956D02*
X008734Y006956D01*
X008734Y007055D02*
X008734Y007055D01*
X008646Y007153D02*
X008833Y007153D01*
X008833Y007252D02*
X008646Y007252D01*
X008646Y007350D02*
X008818Y007350D01*
X008720Y007449D02*
X008627Y007449D01*
X008377Y007449D02*
X008339Y007449D01*
X008339Y007547D02*
X008377Y007547D01*
X008377Y007646D02*
X008339Y007646D01*
X008303Y007684D02*
X008303Y008211D01*
X008322Y008193D02*
X008322Y008230D01*
X008630Y008230D01*
X008630Y008247D01*
X008636Y008241D01*
X008636Y007941D01*
X008636Y007943D01*
X008616Y007977D01*
X008604Y007988D01*
X008620Y008016D01*
X008630Y008054D01*
X008630Y008193D01*
X008322Y008193D01*
X008630Y008237D02*
X008636Y008237D01*
X008630Y008138D02*
X008636Y008138D01*
X008626Y008040D02*
X008636Y008040D01*
X008636Y007941D02*
X008636Y007941D01*
X008358Y007707D02*
X008303Y007684D01*
X008339Y007350D02*
X008377Y007350D01*
X008377Y007252D02*
X008339Y007252D01*
X008269Y006700D02*
X008478Y006700D01*
X008478Y006700D01*
X008222Y006700D01*
X008222Y006314D01*
X008222Y006700D01*
X008222Y006700D01*
X008222Y006700D01*
X008269Y006700D01*
X008222Y006700D02*
X008013Y006700D01*
X007966Y006700D01*
X007966Y006314D01*
X007966Y006700D01*
X007966Y006700D01*
X007966Y006700D01*
X007757Y006700D01*
X007966Y006700D01*
X007966Y006700D01*
X008222Y006700D01*
X008222Y006700D01*
X008222Y006661D02*
X008222Y006661D01*
X008222Y006562D02*
X008222Y006562D01*
X008222Y006464D02*
X008222Y006464D01*
X008222Y006365D02*
X008222Y006365D01*
X008478Y006365D02*
X008478Y006365D01*
X008478Y006464D02*
X008478Y006464D01*
X008478Y006562D02*
X008478Y006562D01*
X008478Y006661D02*
X008478Y006661D01*
X008734Y006365D02*
X008734Y006365D01*
X009030Y006168D02*
X007735Y006168D01*
X007735Y006070D02*
X009030Y006070D01*
X009030Y005971D02*
X008604Y005971D01*
X008678Y005873D02*
X009030Y005873D01*
X009030Y005774D02*
X008702Y005774D01*
X008688Y005676D02*
X009036Y005676D01*
X009134Y005577D02*
X008672Y005577D01*
X008672Y005479D02*
X009226Y005479D01*
X009226Y005380D02*
X008890Y005380D01*
X008937Y005282D02*
X009226Y005282D01*
X009226Y005183D02*
X008937Y005183D01*
X008937Y005085D02*
X009226Y005085D01*
X009226Y004986D02*
X008937Y004986D01*
X008937Y004888D02*
X009226Y004888D01*
X009226Y004789D02*
X008937Y004789D01*
X008928Y004691D02*
X009312Y004691D01*
X009411Y004592D02*
X008928Y004592D01*
X008864Y004494D02*
X009423Y004494D01*
X009423Y004395D02*
X008766Y004395D01*
X008626Y004530D02*
X008232Y004530D01*
X008035Y004530D01*
X007841Y004297D02*
X007825Y004297D01*
X007841Y004198D02*
X007737Y004198D01*
X007737Y004100D02*
X007841Y004100D01*
X007841Y004001D02*
X007737Y004001D01*
X007663Y003903D02*
X007841Y003903D01*
X007841Y003804D02*
X007681Y003804D01*
X007693Y003706D02*
X007841Y003706D01*
X008035Y003349D02*
X007819Y003133D01*
X005358Y003133D01*
X005358Y002306D01*
X006106Y002300D01*
X006612Y002550D02*
X006684Y002622D01*
X006684Y002938D01*
X007576Y002938D01*
X007576Y002622D01*
X007648Y002550D01*
X007576Y002478D01*
X007576Y002122D01*
X007648Y002050D01*
X007576Y001978D01*
X007576Y001622D01*
X007648Y001550D01*
X007576Y001478D01*
X007576Y001122D01*
X007598Y001099D01*
X006665Y001100D01*
X006679Y001124D01*
X006689Y001162D01*
X006689Y001291D01*
X006115Y001291D01*
X006115Y001309D01*
X006689Y001309D01*
X006689Y001438D01*
X006679Y001476D01*
X006659Y001510D01*
X006631Y001538D01*
X006611Y001550D01*
X006684Y001622D01*
X006684Y001978D01*
X006612Y002050D01*
X006684Y002122D01*
X006684Y002478D01*
X006612Y002550D01*
X006638Y002524D02*
X007621Y002524D01*
X007576Y002622D02*
X006684Y002622D01*
X006684Y002721D02*
X007576Y002721D01*
X007576Y002819D02*
X006684Y002819D01*
X006684Y002918D02*
X007576Y002918D01*
X007576Y002425D02*
X006684Y002425D01*
X006684Y002327D02*
X007576Y002327D01*
X007576Y002228D02*
X006684Y002228D01*
X006684Y002130D02*
X007576Y002130D01*
X007629Y002031D02*
X006630Y002031D01*
X006684Y001933D02*
X007576Y001933D01*
X007576Y001834D02*
X006684Y001834D01*
X006684Y001736D02*
X007576Y001736D01*
X007576Y001637D02*
X006684Y001637D01*
X006630Y001539D02*
X007636Y001539D01*
X007576Y001440D02*
X006688Y001440D01*
X006689Y001342D02*
X007576Y001342D01*
X007576Y001243D02*
X006689Y001243D01*
X006684Y001145D02*
X007576Y001145D01*
X008153Y001800D02*
X008199Y001833D01*
X008941Y001833D01*
X009295Y001833D01*
X009295Y003074D01*
X009489Y002819D02*
X009727Y002819D01*
X009817Y002721D02*
X009489Y002721D01*
X009591Y002622D02*
X009629Y002622D01*
X009629Y002524D02*
X009591Y002524D01*
X009591Y002425D02*
X009629Y002425D01*
X009629Y002918D02*
X009514Y002918D01*
X009559Y003016D02*
X009620Y003016D01*
X009620Y003115D02*
X009560Y003115D01*
X009525Y003213D02*
X009620Y003213D01*
X009620Y003312D02*
X009414Y003312D01*
X009620Y003410D02*
X008230Y003410D01*
X008230Y003312D02*
X009176Y003312D01*
X009065Y003213D02*
X008174Y003213D01*
X008076Y003115D02*
X009029Y003115D01*
X009031Y003016D02*
X008693Y003016D01*
X008731Y002918D02*
X009075Y002918D01*
X009100Y002819D02*
X008731Y002819D01*
X008731Y002721D02*
X009100Y002721D01*
X008960Y002622D02*
X008922Y002622D01*
X008922Y002524D02*
X008960Y002524D01*
X008960Y002425D02*
X008922Y002425D01*
X009295Y001833D02*
X009610Y001833D01*
X009616Y001800D01*
X009847Y001551D02*
X009373Y001551D01*
X009288Y001636D01*
X009288Y001639D01*
X009262Y001639D01*
X009262Y001636D01*
X009178Y001551D01*
X008704Y001551D01*
X008682Y001573D01*
X008659Y001550D01*
X008731Y001478D01*
X008731Y001122D01*
X008708Y001099D01*
X010310Y001098D01*
X010244Y001126D01*
X010099Y001270D01*
X010021Y001459D01*
X010021Y001664D01*
X010061Y001761D01*
X009932Y001890D01*
X009932Y001636D01*
X009847Y001551D01*
X009932Y001637D02*
X010021Y001637D01*
X010021Y001539D02*
X008670Y001539D01*
X008731Y001440D02*
X010029Y001440D01*
X010069Y001342D02*
X008731Y001342D01*
X008731Y001243D02*
X010126Y001243D01*
X010225Y001145D02*
X008731Y001145D01*
X009262Y001637D02*
X009288Y001637D01*
X009932Y001736D02*
X010050Y001736D01*
X009988Y001834D02*
X009932Y001834D01*
X010248Y002124D02*
X010398Y002062D01*
X010336Y002036D01*
X010248Y002124D01*
X009620Y003509D02*
X008230Y003509D01*
X008230Y003607D02*
X009620Y003607D01*
X009549Y003706D02*
X008230Y003706D01*
X008230Y003804D02*
X009451Y003804D01*
X009423Y003903D02*
X008230Y003903D01*
X008230Y004001D02*
X009423Y004001D01*
X009423Y004100D02*
X008230Y004100D01*
X008230Y004198D02*
X009423Y004198D01*
X009423Y004297D02*
X008230Y004297D01*
X008232Y004530D02*
X008222Y005037D01*
X008478Y005037D02*
X008478Y005722D01*
X008437Y005763D01*
X008195Y005873D02*
X007735Y005873D01*
X007735Y005774D02*
X008171Y005774D01*
X008185Y005676D02*
X007735Y005676D01*
X007735Y005577D02*
X008247Y005577D01*
X008283Y005479D02*
X007668Y005479D01*
X007802Y005380D02*
X007355Y005380D01*
X007312Y005282D02*
X007757Y005282D01*
X007966Y005282D02*
X007966Y005282D01*
X007966Y005380D02*
X007966Y005380D01*
X007966Y005183D02*
X007966Y005183D01*
X007966Y005085D02*
X007966Y005085D01*
X007966Y005037D02*
X007966Y005037D01*
X008626Y004530D02*
X008734Y004638D01*
X008734Y005037D01*
X008270Y005971D02*
X007704Y005971D01*
X007735Y006365D02*
X007794Y006365D01*
X007757Y006464D02*
X007723Y006464D01*
X007757Y006562D02*
X007552Y006562D01*
X007553Y006661D02*
X007757Y006661D01*
X007757Y006759D02*
X007516Y006759D01*
X007966Y006661D02*
X007966Y006661D01*
X007966Y006562D02*
X007966Y006562D01*
X007966Y006464D02*
X007966Y006464D01*
X007966Y006365D02*
X007966Y006365D01*
X007413Y007672D02*
X007433Y007751D01*
X006214Y006661D02*
X006214Y006661D01*
X006214Y006562D02*
X006214Y006562D01*
X006214Y006464D02*
X006214Y006464D01*
X006214Y006365D02*
X006214Y006365D01*
X006333Y006365D02*
X006350Y006365D01*
X006095Y006365D02*
X006077Y006365D01*
X005749Y006858D02*
X005522Y006858D01*
X005587Y006956D02*
X005594Y006956D01*
X005219Y006168D02*
X005182Y006168D01*
X005182Y006070D02*
X005219Y006070D01*
X004873Y006365D02*
X004726Y006365D01*
X004726Y006464D02*
X004880Y006464D01*
X004913Y006562D02*
X004726Y006562D01*
X004726Y006661D02*
X004879Y006661D01*
X004879Y006759D02*
X004726Y006759D01*
X004726Y006858D02*
X004879Y006858D01*
X004879Y006956D02*
X004726Y006956D01*
X004726Y007055D02*
X004879Y007055D01*
X004140Y006070D02*
X003684Y006070D01*
X004529Y005438D02*
X004534Y005438D01*
X004612Y005438D01*
X004614Y005440D01*
X004977Y005450D01*
X004977Y005435D01*
X005009Y005403D01*
X004668Y005403D01*
X004610Y005345D01*
X004552Y005403D01*
X004529Y005403D01*
X004529Y005438D01*
X004575Y005380D02*
X004645Y005380D01*
X004866Y005081D02*
X005043Y005062D01*
X005279Y005062D01*
X005021Y004760D02*
X005011Y004755D01*
X004980Y004725D01*
X004730Y004725D01*
X004695Y004760D01*
X005021Y004760D01*
X004711Y004198D02*
X003903Y004198D01*
X003757Y004100D02*
X004613Y004100D01*
X004514Y004001D02*
X003839Y004001D01*
X003938Y003903D02*
X004416Y003903D01*
X004317Y003804D02*
X004005Y003804D01*
X004847Y003312D02*
X004885Y003312D01*
X004885Y003213D02*
X004847Y003213D01*
X004847Y003115D02*
X004885Y003115D01*
X004885Y003016D02*
X004847Y003016D01*
X004847Y002918D02*
X004885Y002918D01*
X004885Y002819D02*
X004847Y002819D01*
X004847Y002721D02*
X004885Y002721D01*
X005119Y002721D02*
X005163Y002721D01*
X005154Y002819D02*
X005163Y002819D01*
X005163Y002622D02*
X004061Y002622D01*
X004061Y002524D02*
X005056Y002524D01*
X005036Y002425D02*
X004046Y002425D01*
X004057Y002327D02*
X004151Y002327D01*
X004098Y002011D02*
X004354Y002011D01*
X004557Y002327D02*
X004669Y002327D01*
X004847Y002327D02*
X004885Y002327D01*
X004885Y002228D02*
X004847Y002228D01*
X004847Y002130D02*
X004885Y002130D01*
X004885Y002031D02*
X004847Y002031D01*
X004847Y001933D02*
X004885Y001933D01*
X004885Y001834D02*
X004847Y001834D01*
X004847Y001736D02*
X004885Y001736D01*
X004614Y001736D02*
X004598Y001736D01*
X005339Y001736D02*
X005377Y001736D01*
X005377Y001637D02*
X005339Y001637D01*
X005339Y001539D02*
X005377Y001539D01*
X005552Y002588D02*
X005552Y002598D01*
X005562Y002588D01*
X005552Y002588D01*
X004613Y002721D02*
X004599Y002721D01*
X004109Y002721D02*
X004040Y002721D01*
X004072Y002819D02*
X003999Y002819D01*
X007036Y003863D02*
X007137Y003863D01*
X007136Y003863D01*
X007108Y003835D01*
X007092Y003808D01*
X007036Y003863D01*
X007280Y004252D02*
X007289Y004261D01*
X007290Y004264D01*
X007302Y004252D01*
X007280Y004252D01*
X010248Y004124D02*
X010398Y004062D01*
X010336Y004036D01*
X010248Y004124D01*
X010272Y004100D02*
X010306Y004100D01*
X010336Y006036D02*
X010248Y006124D01*
X010398Y006062D01*
X010336Y006036D01*
X010302Y006070D02*
X010379Y006070D01*
X008242Y009756D02*
X008084Y009914D01*
X007951Y009914D01*
X007951Y010011D01*
X007947Y010015D01*
X007951Y010018D01*
X007951Y010115D01*
X008179Y010115D01*
X008242Y010052D01*
X008242Y009756D01*
X008242Y009813D02*
X008185Y009813D01*
X008242Y009911D02*
X008087Y009911D01*
X007951Y010010D02*
X008242Y010010D01*
X008186Y010108D02*
X007951Y010108D01*
D20*
X008311Y009137D03*
X007019Y008440D03*
X006697Y008349D03*
X006421Y008113D03*
X006350Y008440D03*
X005476Y008310D03*
X005634Y006814D03*
X006657Y006066D03*
X007090Y005436D03*
X008035Y006144D03*
X008437Y005763D03*
X008941Y006263D03*
X007287Y006617D03*
X005161Y004530D03*
X007760Y003585D03*
X008941Y002956D03*
X009295Y003074D03*
X004697Y010054D03*
X005161Y011499D03*
X005515Y011971D03*
X005803Y012278D03*
M02*
