G75*
%MOIN*%
%OFA0B0*%
%FSLAX24Y24*%
%IPPOS*%
%LPD*%
%AMOC8*
5,1,8,0,0,1.08239X$1,22.5*
%
%ADD10C,0.0000*%
%ADD11C,0.0040*%
%ADD12R,0.0059X0.0118*%
%ADD13R,0.0118X0.0118*%
%ADD14C,0.0060*%
%ADD15C,0.0020*%
%ADD16C,0.0050*%
%ADD17C,0.0080*%
%ADD18R,0.0118X0.0059*%
D10*
X002917Y000952D02*
X002917Y013221D01*
X011169Y013221D01*
X011169Y000948D01*
X002917Y000952D01*
D11*
X004380Y002357D02*
X004380Y002664D01*
X004457Y002741D01*
X004610Y002741D01*
X004687Y002664D01*
X004840Y002588D02*
X004994Y002741D01*
X004994Y002281D01*
X005147Y002281D02*
X004840Y002281D01*
X004687Y002357D02*
X004610Y002281D01*
X004457Y002281D01*
X004380Y002357D01*
X004704Y003159D02*
X005011Y003159D01*
X005088Y003235D01*
X005088Y003389D01*
X005011Y003466D01*
X004840Y003572D02*
X004994Y003725D01*
X004994Y003265D01*
X005147Y003265D02*
X004840Y003265D01*
X004704Y003159D02*
X004628Y003235D01*
X004628Y003389D01*
X004704Y003466D01*
X004687Y003342D02*
X004610Y003265D01*
X004457Y003265D01*
X004380Y003342D01*
X004380Y003649D01*
X004457Y003725D01*
X004610Y003725D01*
X004687Y003649D01*
X004781Y003619D02*
X004628Y003772D01*
X005088Y003772D01*
X005088Y003619D02*
X005088Y003926D01*
X005011Y004079D02*
X005088Y004156D01*
X005088Y004310D01*
X005011Y004386D01*
X004934Y004386D01*
X004858Y004310D01*
X004858Y004233D01*
X004858Y004310D02*
X004781Y004386D01*
X004704Y004386D01*
X004628Y004310D01*
X004628Y004156D01*
X004704Y004079D01*
X004726Y004351D02*
X004420Y004351D01*
X004266Y004351D02*
X004113Y004505D01*
X004189Y004505D02*
X003959Y004505D01*
X003959Y004351D02*
X003959Y004812D01*
X004189Y004812D01*
X004266Y004735D01*
X004266Y004582D01*
X004189Y004505D01*
X004420Y004658D02*
X004573Y004812D01*
X004573Y004351D01*
X004549Y005127D02*
X005009Y005127D01*
X005009Y005434D01*
X005009Y005587D02*
X005009Y005894D01*
X005009Y006048D02*
X005009Y006278D01*
X004932Y006355D01*
X004626Y006355D01*
X004549Y006278D01*
X004549Y006048D01*
X005009Y006048D01*
X004779Y005741D02*
X004779Y005587D01*
X004549Y005587D02*
X005009Y005587D01*
X004549Y005587D02*
X004549Y005894D01*
X004702Y006508D02*
X004549Y006662D01*
X005009Y006662D01*
X005009Y006815D02*
X005009Y006508D01*
X005470Y006578D02*
X005470Y006425D01*
X005547Y006348D01*
X005624Y006348D01*
X005700Y006425D01*
X005700Y006655D01*
X005547Y006655D02*
X005470Y006578D01*
X005547Y006655D02*
X005854Y006655D01*
X005930Y006578D01*
X005930Y006425D01*
X005854Y006348D01*
X005854Y006194D02*
X005930Y006118D01*
X005930Y005964D01*
X005854Y005887D01*
X005547Y005887D01*
X005470Y005964D01*
X005470Y006118D01*
X005547Y006194D01*
X005795Y005261D02*
X005719Y005184D01*
X005719Y004877D01*
X005795Y004800D01*
X005949Y004800D01*
X006025Y004877D01*
X006179Y005031D02*
X006486Y005031D01*
X006409Y005261D02*
X006409Y004800D01*
X006179Y005031D02*
X006409Y005261D01*
X006025Y005184D02*
X005949Y005261D01*
X005795Y005261D01*
X006846Y006372D02*
X007153Y006372D01*
X007230Y006449D01*
X007230Y006602D01*
X007153Y006679D01*
X007230Y006832D02*
X007230Y007139D01*
X007210Y007080D02*
X007210Y007311D01*
X007287Y007387D01*
X007440Y007387D01*
X007517Y007311D01*
X007517Y007080D01*
X007671Y007080D02*
X007210Y007080D01*
X007230Y006986D02*
X006769Y006986D01*
X006923Y006832D01*
X006846Y006679D02*
X006769Y006602D01*
X006769Y006449D01*
X006846Y006372D01*
X007683Y006039D02*
X007913Y005808D01*
X007913Y006115D01*
X008143Y006039D02*
X007683Y006039D01*
X007759Y005655D02*
X007913Y005655D01*
X007990Y005578D01*
X007990Y005348D01*
X008143Y005348D02*
X007683Y005348D01*
X007683Y005578D01*
X007759Y005655D01*
X007990Y005501D02*
X008143Y005655D01*
X007748Y005261D02*
X007824Y005184D01*
X007824Y005107D01*
X007748Y005031D01*
X007824Y004954D01*
X007824Y004877D01*
X007748Y004800D01*
X007594Y004800D01*
X007517Y004877D01*
X007364Y004877D02*
X007287Y004800D01*
X007134Y004800D01*
X007057Y004877D01*
X007057Y005184D01*
X007134Y005261D01*
X007287Y005261D01*
X007364Y005184D01*
X007517Y005184D02*
X007594Y005261D01*
X007748Y005261D01*
X007748Y005031D02*
X007671Y005031D01*
X007628Y004316D02*
X007321Y004316D01*
X007321Y003855D01*
X007628Y003855D01*
X007781Y003855D02*
X008011Y003855D01*
X008088Y003932D01*
X008088Y004239D01*
X008011Y004316D01*
X007781Y004316D01*
X007781Y003855D01*
X007474Y004086D02*
X007321Y004086D01*
X007167Y003855D02*
X006860Y003855D01*
X006860Y004316D01*
X005912Y003788D02*
X005912Y003328D01*
X005876Y003316D02*
X005876Y003086D01*
X006030Y003162D01*
X006106Y003162D01*
X006183Y003086D01*
X006183Y002932D01*
X006106Y002855D01*
X005953Y002855D01*
X005876Y002932D01*
X005723Y002855D02*
X005569Y003009D01*
X005646Y003009D02*
X005416Y003009D01*
X005416Y002855D02*
X005416Y003316D01*
X005646Y003316D01*
X005723Y003239D01*
X005723Y003086D01*
X005646Y003009D01*
X005608Y002741D02*
X005454Y002664D01*
X005301Y002511D01*
X005531Y002511D01*
X005608Y002434D01*
X005608Y002357D01*
X005531Y002281D01*
X005377Y002281D01*
X005301Y002357D01*
X005301Y002511D01*
X005704Y002167D02*
X005628Y002090D01*
X005628Y001936D01*
X005704Y001860D01*
X005628Y001553D02*
X006088Y001553D01*
X006088Y001706D02*
X006088Y001399D01*
X006011Y001246D02*
X006088Y001169D01*
X006088Y001016D01*
X006011Y000939D01*
X005704Y000939D01*
X005628Y001016D01*
X005628Y001169D01*
X005704Y001246D01*
X005781Y001399D02*
X005628Y001553D01*
X006088Y001860D02*
X005781Y002167D01*
X005704Y002167D01*
X006088Y002167D02*
X006088Y001860D01*
X006183Y003316D02*
X005876Y003316D01*
X005758Y003328D02*
X006065Y003328D01*
X005758Y003635D02*
X005912Y003788D01*
X005608Y003725D02*
X005301Y003725D01*
X005301Y003495D01*
X005454Y003572D01*
X005531Y003572D01*
X005608Y003495D01*
X005608Y003342D01*
X005531Y003265D01*
X005377Y003265D01*
X005301Y003342D01*
X005298Y003328D02*
X005605Y003328D01*
X005298Y003328D02*
X005298Y003788D01*
X007759Y006765D02*
X008066Y006765D01*
X008143Y006842D01*
X008143Y006996D01*
X008066Y007072D01*
X008066Y007226D02*
X007990Y007226D01*
X007913Y007302D01*
X007913Y007456D01*
X007990Y007533D01*
X008066Y007533D01*
X008143Y007456D01*
X008143Y007302D01*
X008066Y007226D01*
X007913Y007302D02*
X007836Y007226D01*
X007759Y007226D01*
X007683Y007302D01*
X007683Y007456D01*
X007759Y007533D01*
X007836Y007533D01*
X007913Y007456D01*
X007949Y007470D02*
X007872Y007546D01*
X007872Y007853D01*
X007949Y007930D01*
X008102Y007930D01*
X008179Y007853D01*
X008102Y007977D02*
X008179Y008054D01*
X008102Y007977D02*
X007949Y007977D01*
X007872Y008054D01*
X007872Y008361D01*
X007949Y008438D01*
X008102Y008438D01*
X008179Y008361D01*
X008332Y008208D02*
X008563Y008208D01*
X008639Y008131D01*
X008639Y008054D01*
X008563Y007977D01*
X008409Y007977D01*
X008332Y008054D01*
X008332Y008208D01*
X008486Y008361D01*
X008639Y008438D01*
X008572Y008507D02*
X008649Y008584D01*
X008726Y008584D01*
X008803Y008507D01*
X008879Y008584D01*
X008956Y008584D01*
X009033Y008507D01*
X009033Y008354D01*
X008956Y008277D01*
X009033Y008123D02*
X008879Y007970D01*
X008879Y008047D02*
X008879Y007817D01*
X009033Y007817D02*
X008572Y007817D01*
X008572Y008047D01*
X008649Y008123D01*
X008803Y008123D01*
X008879Y008047D01*
X008639Y007930D02*
X008639Y007853D01*
X008332Y007546D01*
X008332Y007470D01*
X008179Y007546D02*
X008102Y007470D01*
X007949Y007470D01*
X007671Y007541D02*
X007671Y007848D01*
X007671Y007541D02*
X007364Y007848D01*
X007287Y007848D01*
X007210Y007771D01*
X007210Y007617D01*
X007287Y007541D01*
X007230Y007523D02*
X007230Y007369D01*
X007153Y007293D01*
X006846Y007600D01*
X007153Y007600D01*
X007230Y007523D01*
X007153Y007293D02*
X006846Y007293D01*
X006769Y007369D01*
X006769Y007523D01*
X006846Y007600D01*
X007517Y007234D02*
X007671Y007387D01*
X007759Y007072D02*
X007683Y006996D01*
X007683Y006842D01*
X007759Y006765D01*
X008332Y007930D02*
X008639Y007930D01*
X008649Y008277D02*
X008572Y008354D01*
X008572Y008507D01*
X008803Y008507D02*
X008803Y008430D01*
X005813Y008161D02*
X005506Y008161D01*
X005352Y008161D02*
X005199Y008314D01*
X005275Y008161D02*
X005352Y008237D01*
X005352Y008544D01*
X005275Y008621D01*
X005122Y008621D01*
X005045Y008544D01*
X005045Y008237D01*
X005122Y008161D01*
X005275Y008161D01*
X005506Y008467D02*
X005659Y008621D01*
X005659Y008161D01*
X004182Y008983D02*
X004106Y008907D01*
X003799Y008907D01*
X003722Y008983D01*
X003722Y009137D01*
X003799Y009214D01*
X003876Y009367D02*
X003722Y009520D01*
X004182Y009520D01*
X004182Y009367D02*
X004182Y009674D01*
X004106Y009214D02*
X004182Y009137D01*
X004182Y008983D01*
X005228Y011773D02*
X005382Y011773D01*
X005305Y011773D02*
X005305Y012233D01*
X005228Y012233D02*
X005382Y012233D01*
X005535Y012156D02*
X005535Y011849D01*
X005612Y011773D01*
X005765Y011773D01*
X005842Y011849D01*
X005996Y011773D02*
X006303Y011773D01*
X006149Y011773D02*
X006149Y012233D01*
X005996Y012080D01*
X005842Y012156D02*
X005765Y012233D01*
X005612Y012233D01*
X005535Y012156D01*
X005108Y012200D02*
X005031Y012123D01*
X004878Y012123D01*
X004801Y012200D01*
X004801Y012353D02*
X004954Y012430D01*
X005031Y012430D01*
X005108Y012353D01*
X005108Y012200D01*
X005108Y012584D02*
X004801Y012584D01*
X004801Y012353D01*
X004647Y012200D02*
X004571Y012123D01*
X004417Y012123D01*
X004341Y012200D01*
X004341Y012507D01*
X004417Y012584D01*
X004571Y012584D01*
X004647Y012507D01*
X004571Y012596D02*
X004647Y012672D01*
X004571Y012596D02*
X004417Y012596D01*
X004341Y012672D01*
X004341Y012979D01*
X004417Y013056D01*
X004571Y013056D01*
X004647Y012979D01*
X004801Y012979D02*
X004878Y013056D01*
X005031Y013056D01*
X005108Y012979D01*
X005108Y012903D01*
X004801Y012596D01*
X005108Y012596D01*
X008318Y004316D02*
X008241Y004239D01*
X008318Y004316D02*
X008472Y004316D01*
X008548Y004239D01*
X008548Y004162D01*
X008241Y003855D01*
X008548Y003855D01*
X008671Y003087D02*
X008671Y002780D01*
X008671Y002627D02*
X008671Y002320D01*
X008671Y002473D02*
X008210Y002473D01*
X008364Y002320D01*
X008287Y002166D02*
X008210Y002090D01*
X008210Y001936D01*
X008287Y001859D01*
X008594Y001859D01*
X008671Y001936D01*
X008671Y002090D01*
X008594Y002166D01*
X008880Y002090D02*
X008880Y001936D01*
X008956Y001859D01*
X009263Y001859D01*
X009340Y001936D01*
X009340Y002090D01*
X009263Y002166D01*
X009340Y002320D02*
X009340Y002627D01*
X009340Y002473D02*
X008880Y002473D01*
X009033Y002320D01*
X008956Y002166D02*
X008880Y002090D01*
X009110Y002780D02*
X009110Y003087D01*
X009340Y003010D02*
X008880Y003010D01*
X009110Y002780D01*
X008671Y002934D02*
X008210Y002934D01*
X008364Y002780D01*
D12*
X005427Y005416D03*
X005132Y005416D03*
D13*
X005279Y005416D03*
X007149Y003585D03*
D14*
X007181Y003664D02*
X007014Y003497D01*
X007236Y003497D01*
X007181Y003330D02*
X007181Y003664D01*
X006874Y003608D02*
X006818Y003664D01*
X006707Y003664D01*
X006651Y003608D01*
X006651Y003386D01*
X006707Y003330D01*
X006818Y003330D01*
X006874Y003386D01*
X006521Y003330D02*
X006410Y003330D01*
X006465Y003330D02*
X006465Y003664D01*
X006410Y003664D02*
X006521Y003664D01*
X006854Y005268D02*
X006874Y005270D01*
X006894Y005274D01*
X006912Y005282D01*
X006929Y005292D01*
X006945Y005305D01*
X006958Y005321D01*
X006968Y005338D01*
X006976Y005356D01*
X006980Y005376D01*
X006982Y005396D01*
X006982Y006420D01*
X006980Y006440D01*
X006976Y006460D01*
X006968Y006478D01*
X006958Y006495D01*
X006945Y006511D01*
X006929Y006524D01*
X006912Y006534D01*
X006894Y006542D01*
X006874Y006546D01*
X006854Y006548D01*
X007710Y006380D02*
X007710Y005357D01*
X007712Y005337D01*
X007716Y005317D01*
X007724Y005299D01*
X007734Y005282D01*
X007747Y005266D01*
X007763Y005253D01*
X007780Y005243D01*
X007798Y005235D01*
X007818Y005231D01*
X007838Y005229D01*
X008861Y005229D02*
X008881Y005231D01*
X008901Y005235D01*
X008919Y005243D01*
X008936Y005253D01*
X008952Y005266D01*
X008965Y005282D01*
X008975Y005299D01*
X008983Y005317D01*
X008987Y005337D01*
X008989Y005357D01*
X008989Y006380D01*
X008987Y006400D01*
X008983Y006420D01*
X008975Y006438D01*
X008965Y006455D01*
X008952Y006471D01*
X008936Y006484D01*
X008919Y006494D01*
X008901Y006502D01*
X008881Y006506D01*
X008861Y006508D01*
X007838Y006508D02*
X007818Y006506D01*
X007798Y006502D01*
X007780Y006494D01*
X007763Y006484D01*
X007747Y006471D01*
X007734Y006455D01*
X007724Y006438D01*
X007716Y006420D01*
X007712Y006400D01*
X007710Y006380D01*
X005830Y006548D02*
X005810Y006546D01*
X005790Y006542D01*
X005772Y006534D01*
X005755Y006524D01*
X005739Y006511D01*
X005726Y006495D01*
X005716Y006478D01*
X005708Y006460D01*
X005704Y006440D01*
X005702Y006420D01*
X005702Y005396D01*
X005704Y005376D01*
X005708Y005356D01*
X005716Y005338D01*
X005726Y005321D01*
X005739Y005305D01*
X005755Y005292D01*
X005772Y005282D01*
X005790Y005274D01*
X005810Y005270D01*
X005830Y005268D01*
D15*
X005773Y005597D02*
X005775Y005624D01*
X005781Y005651D01*
X005790Y005677D01*
X005803Y005701D01*
X005819Y005724D01*
X005838Y005743D01*
X005860Y005760D01*
X005884Y005774D01*
X005909Y005784D01*
X005936Y005791D01*
X005963Y005794D01*
X005991Y005793D01*
X006018Y005788D01*
X006044Y005780D01*
X006068Y005768D01*
X006091Y005752D01*
X006112Y005734D01*
X006129Y005713D01*
X006144Y005689D01*
X006155Y005664D01*
X006163Y005638D01*
X006167Y005611D01*
X006167Y005583D01*
X006163Y005556D01*
X006155Y005530D01*
X006144Y005505D01*
X006129Y005481D01*
X006112Y005460D01*
X006091Y005442D01*
X006069Y005426D01*
X006044Y005414D01*
X006018Y005406D01*
X005991Y005401D01*
X005963Y005400D01*
X005936Y005403D01*
X005909Y005410D01*
X005884Y005420D01*
X005860Y005434D01*
X005838Y005451D01*
X005819Y005470D01*
X005803Y005493D01*
X005790Y005517D01*
X005781Y005543D01*
X005775Y005570D01*
X005773Y005597D01*
X007781Y005558D02*
X007783Y005585D01*
X007789Y005612D01*
X007798Y005638D01*
X007811Y005662D01*
X007827Y005685D01*
X007846Y005704D01*
X007868Y005721D01*
X007892Y005735D01*
X007917Y005745D01*
X007944Y005752D01*
X007971Y005755D01*
X007999Y005754D01*
X008026Y005749D01*
X008052Y005741D01*
X008076Y005729D01*
X008099Y005713D01*
X008120Y005695D01*
X008137Y005674D01*
X008152Y005650D01*
X008163Y005625D01*
X008171Y005599D01*
X008175Y005572D01*
X008175Y005544D01*
X008171Y005517D01*
X008163Y005491D01*
X008152Y005466D01*
X008137Y005442D01*
X008120Y005421D01*
X008099Y005403D01*
X008077Y005387D01*
X008052Y005375D01*
X008026Y005367D01*
X007999Y005362D01*
X007971Y005361D01*
X007944Y005364D01*
X007917Y005371D01*
X007892Y005381D01*
X007868Y005395D01*
X007846Y005412D01*
X007827Y005431D01*
X007811Y005454D01*
X007798Y005478D01*
X007789Y005504D01*
X007783Y005531D01*
X007781Y005558D01*
D16*
X007525Y005426D02*
X007525Y005276D01*
X007450Y005201D01*
X007150Y005201D01*
X007075Y005276D01*
X007075Y005426D01*
X007150Y005501D01*
X007150Y005661D02*
X007075Y005736D01*
X007075Y005886D01*
X007150Y005961D01*
X007225Y005961D01*
X007300Y005886D01*
X007375Y005961D01*
X007450Y005961D01*
X007525Y005886D01*
X007525Y005736D01*
X007450Y005661D01*
X007450Y005501D02*
X007525Y005426D01*
X007525Y005044D02*
X007525Y004894D01*
X007525Y004969D02*
X007075Y004969D01*
X007075Y004894D02*
X007075Y005044D01*
X007300Y005811D02*
X007300Y005886D01*
X005517Y006001D02*
X005517Y005701D01*
X005217Y006001D01*
X005142Y006001D01*
X005067Y005926D01*
X005067Y005776D01*
X005142Y005701D01*
X005142Y005540D02*
X005067Y005465D01*
X005067Y005315D01*
X005142Y005240D01*
X005442Y005240D01*
X005517Y005315D01*
X005517Y005465D01*
X005442Y005540D01*
X005517Y005083D02*
X005517Y004933D01*
X005517Y005008D02*
X005067Y005008D01*
X005067Y004933D02*
X005067Y005083D01*
X004742Y003886D02*
X004292Y003886D01*
X004517Y003660D01*
X004517Y003961D01*
X004517Y003500D02*
X004367Y003500D01*
X004292Y003425D01*
X004292Y003200D01*
X004742Y003200D01*
X004592Y003200D02*
X004592Y003425D01*
X004517Y003500D01*
X004292Y003040D02*
X004292Y002890D01*
X004292Y002965D02*
X004667Y002965D01*
X004742Y002890D01*
X004742Y002815D01*
X004667Y002740D01*
X002802Y004140D02*
X002802Y004215D01*
X002727Y004290D01*
X002352Y004290D01*
X002352Y004215D02*
X002352Y004365D01*
X002352Y004525D02*
X002352Y004750D01*
X002427Y004825D01*
X002577Y004825D01*
X002652Y004750D01*
X002652Y004525D01*
X002802Y004525D02*
X002352Y004525D01*
X002802Y004140D02*
X002727Y004065D01*
X002727Y004985D02*
X002802Y005061D01*
X002802Y005211D01*
X002727Y005286D01*
X002652Y005286D01*
X002577Y005211D01*
X002577Y005136D01*
X002577Y005211D02*
X002502Y005286D01*
X002427Y005286D01*
X002352Y005211D01*
X002352Y005061D01*
X002427Y004985D01*
X002727Y008061D02*
X002802Y008136D01*
X002802Y008211D01*
X002727Y008286D01*
X002352Y008286D01*
X002352Y008211D02*
X002352Y008361D01*
X002352Y008521D02*
X002352Y008746D01*
X002427Y008821D01*
X002577Y008821D01*
X002652Y008746D01*
X002652Y008521D01*
X002802Y008521D02*
X002352Y008521D01*
X002502Y008982D02*
X002352Y009132D01*
X002802Y009132D01*
X002802Y008982D02*
X002802Y009282D01*
X006709Y002800D02*
X006711Y002816D01*
X006717Y002832D01*
X006726Y002846D01*
X006738Y002857D01*
X006752Y002865D01*
X006768Y002870D01*
X006784Y002871D01*
X006800Y002868D01*
X006815Y002861D01*
X006829Y002852D01*
X006839Y002839D01*
X006847Y002824D01*
X006851Y002808D01*
X006851Y002792D01*
X006847Y002776D01*
X006839Y002761D01*
X006829Y002748D01*
X006816Y002739D01*
X006800Y002732D01*
X006784Y002729D01*
X006768Y002730D01*
X006752Y002735D01*
X006738Y002743D01*
X006726Y002754D01*
X006717Y002768D01*
X006711Y002784D01*
X006709Y002800D01*
X011655Y011736D02*
X011730Y011811D01*
X011730Y011886D01*
X011655Y011961D01*
X011280Y011961D01*
X011280Y011886D02*
X011280Y012036D01*
X011280Y012196D02*
X011280Y012421D01*
X011355Y012496D01*
X011505Y012496D01*
X011580Y012421D01*
X011580Y012196D01*
X011730Y012196D02*
X011280Y012196D01*
X011355Y012656D02*
X011280Y012731D01*
X011280Y012882D01*
X011355Y012957D01*
X011430Y012957D01*
X011730Y012656D01*
X011730Y012957D01*
D17*
X011035Y012812D02*
X011035Y012312D01*
X010785Y012062D01*
X011035Y011812D01*
X011035Y011312D01*
X010785Y011062D01*
X011035Y010812D01*
X011035Y010312D01*
X010785Y010062D01*
X011035Y009812D01*
X011035Y009312D01*
X010785Y009062D01*
X011035Y008812D01*
X011035Y008312D01*
X010785Y008062D01*
X011035Y007812D01*
X011035Y007312D01*
X010785Y007062D01*
X011035Y006812D01*
X011035Y006312D01*
X010785Y006062D01*
X011035Y005812D01*
X011035Y005312D01*
X010785Y005062D01*
X011035Y004812D01*
X011035Y004312D01*
X010785Y004062D01*
X011035Y003812D01*
X011035Y003312D01*
X010785Y003062D01*
X011035Y002812D01*
X011035Y002312D01*
X010785Y002062D01*
X011035Y001812D01*
X011035Y001312D01*
X010785Y001062D01*
X010285Y001062D01*
X010035Y001312D01*
X010035Y001812D01*
X010285Y002062D01*
X010035Y002312D01*
X010035Y002812D01*
X010285Y003062D01*
X010035Y003312D01*
X010035Y003812D01*
X010285Y004062D01*
X010035Y004312D01*
X010035Y004812D01*
X010285Y005062D01*
X010035Y005312D01*
X010035Y005812D01*
X010285Y006062D01*
X010035Y006312D01*
X010035Y006812D01*
X010285Y007062D01*
X010035Y007312D01*
X010035Y007812D01*
X010285Y008062D01*
X010035Y008312D01*
X010035Y008812D01*
X010285Y009062D01*
X010035Y009312D01*
X010035Y009812D01*
X010285Y010062D01*
X010035Y010312D01*
X010035Y010812D01*
X010285Y011062D01*
X010035Y011312D01*
X010035Y011812D01*
X010285Y012062D01*
X010035Y012312D01*
X010035Y012812D01*
X010285Y013062D01*
X010785Y013062D01*
X011035Y012812D01*
X004047Y012816D02*
X004047Y012316D01*
X003797Y012066D01*
X004047Y011816D01*
X004047Y011316D01*
X003797Y011066D01*
X004047Y010816D01*
X004047Y010316D01*
X003797Y010066D01*
X004047Y009816D01*
X004047Y009316D01*
X003797Y009066D01*
X004047Y008816D01*
X004047Y008316D01*
X003797Y008066D01*
X003297Y008066D01*
X003047Y008316D01*
X003047Y008816D01*
X003297Y009066D01*
X003047Y009316D01*
X003047Y009816D01*
X003297Y010066D01*
X003047Y010316D01*
X003047Y010816D01*
X003297Y011066D01*
X003047Y011316D01*
X003047Y011816D01*
X003297Y012066D01*
X003047Y012316D01*
X003047Y012816D01*
X003297Y013066D01*
X003797Y013066D01*
X004047Y012816D01*
X003797Y008070D02*
X003297Y008070D01*
X003047Y007820D01*
X003047Y007320D01*
X003297Y007070D01*
X003047Y006820D01*
X003047Y006320D01*
X003297Y006070D01*
X003047Y005820D01*
X003047Y005320D01*
X003297Y005070D01*
X003047Y004820D01*
X003047Y004320D01*
X003297Y004070D01*
X003797Y004070D01*
X004047Y004320D01*
X004047Y004820D01*
X003797Y005070D01*
X004047Y005320D01*
X004047Y005820D01*
X003797Y006070D01*
X004047Y006320D01*
X004047Y006820D01*
X003797Y007070D01*
X004047Y007320D01*
X004047Y007820D01*
X003797Y008070D01*
X003797Y004066D02*
X003297Y004066D01*
X003047Y003816D01*
X003047Y003316D01*
X003297Y003066D01*
X003047Y002816D01*
X003047Y002316D01*
X003297Y002066D01*
X003047Y001816D01*
X003047Y001316D01*
X003297Y001066D01*
X003797Y001066D01*
X004047Y001316D01*
X004047Y001816D01*
X003797Y002066D01*
X004047Y002316D01*
X004047Y002816D01*
X003797Y003066D01*
X004047Y003316D01*
X004047Y003816D01*
X003797Y004066D01*
X006382Y002995D02*
X007878Y002995D01*
X007878Y001105D02*
X006382Y001105D01*
D18*
X007149Y003438D03*
X007149Y003733D03*
M02*
