%
M48
M72
T01C0.0122
T02C0.0400
%
T01
X5161Y4530
X6657Y6066
X7090Y5436
X8035Y6144
X8437Y5763
X8941Y6263
X7287Y6617
X6421Y8113
X6697Y8349
X7019Y8440
X6350Y8440
X5476Y8310
X5634Y6814
X8311Y9137
X5803Y12278
X5515Y11971
X5161Y11499
X4697Y10054
X7760Y3585
X8941Y2956
X9295Y3074
T02
X3547Y1566
X3547Y2566
X3547Y3566
X3547Y4570
X3547Y5570
X3547Y6570
X3547Y7570
X3547Y8566
X3547Y9566
X3547Y10566
X3547Y11566
X3547Y12566
X10535Y12562
X10535Y11562
X10535Y10562
X10535Y9562
X10535Y8562
X10535Y7562
X10535Y6562
X10535Y5562
X10535Y4562
X10535Y3562
X10535Y2562
X10535Y1562
M30
